<?xml version="1.0" standalone="no"?>
<!DOCTYPE svg PUBLIC "-//W3C//DTD SVG 1.1//EN" "http://www.w3.org/Graphics/SVG/1.1/DTD/svg11.dtd" >
<svg>
<metadata>
Created by FontForge 20120731 at Mon Oct 26 07:53:06 2015
 By www-data
Haiku's Script (c) Le Thi Thu Huong - [haikuume@gmail.com]. All Rights Reserved.
</metadata>
<defs>
<font id="Haiku'sScriptv.09Bold" horiz-adv-x="1191" >
  <font-face 
    font-family="Haiku's Script v.09 Bold"
    font-weight="400"
    font-stretch="normal"
    units-per-em="2048"
    panose-1="2 0 5 0 0 0 0 0 0 0"
    ascent="1638"
    descent="-410"
    x-height="516"
    cap-height="2286"
    bbox="-569 -1527 5208 2692"
    underline-thickness="150"
    underline-position="-142"
    unicode-range="U+0020-2122"
  />
    <missing-glyph />
    <glyph glyph-name="space" unicode=" " horiz-adv-x="561" 
 />
    <glyph glyph-name="space" unicode="&#xa0;" horiz-adv-x="561" 
 />
    <glyph glyph-name="exclam" unicode="!" horiz-adv-x="457" 
d="M429 1794h40q0 -21 15 -52q-31 -279 -31 -367q0 -9 18 -9l-18 -83v-106q31 -371 31 -413v-31q0 -87 -90 -132q-77 402 -92 714q76 441 127 479zM314 206h30q175 0 175 -131q-23 -82 -114 -82h-15q-27 0 -114 127v49q6 37 38 37z" />
    <glyph glyph-name="exclamdown" unicode="&#xa1;" horiz-adv-x="617" 
d="M236 472q15 313 95 723q99 -50 99 -141v-31q0 -42 -31 -413v-105l19 -90q-19 0 -19 -3q0 -88 31 -368q-15 -31 -15 -57h-48q-55 41 -131 485zM190 1618v51q90 131 120 131h15q96 0 120 -87q0 -138 -181 -138h-30q-37 0 -44 43z" />
    <glyph glyph-name="question" unicode="?" horiz-adv-x="862" 
d="M737 1755l93 -12q242 -79 240 -424q-34 -287 -560 -691q-5 -48 -40 -45l-12 1q-37 3 -31 63q382 374 439 460q31 68 72 152l6 87q-3 224 -186 279l-20 2q-353 -32 -366 -167l54 -35l11 -59q-33 -124 -166 -99l-26 2q-53 39 -47 101q28 326 539 385zM569 264
q51 -25 89 -96v-14q-4 -98 -76 -137q-1 -30 -34 -28h-11q-39 1 -78 168v13q3 96 110 94z" />
    <glyph glyph-name="questiondown" unicode="&#xbf;" horiz-adv-x="1149" 
d="M530 -11l-94 12q-241 79 -239 424q34 287 560 691q4 48 40 45l12 -1q36 -3 31 -63q-382 -374 -440 -460q-30 -68 -71 -152l-6 -87q3 -224 186 -279l20 -2q353 32 365 167l-54 35l-10 59q33 124 166 99l26 -2q53 -39 47 -101q-28 -326 -539 -385zM698 1480q-51 25 -89 96
v14q3 98 75 137q2 30 34 28h11q39 -1 79 -168v-13q-3 -96 -110 -94z" />
    <glyph glyph-name="quotedbl" unicode="&#x22;" horiz-adv-x="552" 
d="M245 1966q-42 -120 -43 -305t-1 -244.5t-58 -27.5q-42 175 -40 429q-6 135 40 175.5t102 -27.5zM424 1957q-23 -108 -34 -289t-17 -240t-63 -24q-11 171 -9 418q-6 132 41.5 173.5t81.5 -38.5z" />
    <glyph glyph-name="numbersign" unicode="#" 
d="M728 1481q21 3 75 -40l-29 -284q6 -46 395 -49l18 -23q3 -21 -62 -44q-148 6 -334 -16q-52 -6 -18 -292q25 -9 63.5 -5t205 22.5t173.5 -30.5q-167 -56 -234 -52l-183 -28q-57 -7 -46 -332q-13 -2 -9 -25l-68 -8l-22 59l-12 83q-2 10 -17 6l12 32l-5 138l-74 5
q-124 -17 -89 -385l22 -58q0 -60 -62 -69l-14 -2q-40 -6 -81 174q13 11 -6 274l-27 8q-162 -28 -239 -37l-13 -1l-45 19q-12 85 320 124q29 4 37 294l-43 18l-145 -17l-158 -30q-3 23 -30 20q31 91 332 126l26 3q35 4 35 357l26 16l39 4q25 3 50 -54q4 -24 -14 -90
q6 -127 33 -188l28 -10l40 5q101 12 85 264q13 97 64 118zM474 723l4 -24q7 -23 28 -20l113 11q38 4 16 305l-29 9l-99 -10q-35 -4 -33 -271z" />
    <glyph glyph-name="dollar" unicode="$" horiz-adv-x="1054" 
d="M558 1938q25 1 54 -41q-7 -246 13 -525l13 -5l78 9q290 -6 320 -233q-12 -91 -75 -142q-27 11 -48 9l-18 131q-16 117 -179 124l-78 -7q-35 3 -12 -304q-5 -74 0 -107l4 -36l35 4q-41 -42 -28 -136q1 -15 262 -157q50 -99 57 -150q-121 -228 -316 -266q-1 -27 -7 -657
l-28 -42q-66 10 -65 130.5t-28 537.5l-366 18q-164 29 -178 125q-22 165 230 281q37 -2 40 -33l3 -19q-179 -130 -170 -200q80 -79 442 -40l-2 12q-2 211 -13 348q0 9 -297 175q-61 83 -71 158q-25 187 362 397q-14 220 8 566q24 71 58 75zM251 890q13 -101 251 -164
q19 2 -8 454l-39 -4q-226 -126 -204 -286zM639 497l3 -259l-4 -1q191 29 175 144q-79 126 -154 118z" />
    <glyph glyph-name="percent" unicode="%" horiz-adv-x="1449" 
d="M1233 1599l31 -47v-28q0 -67 -796 -849q-178 -210 -216 -316q-46 0 -116 -205v-33h47q48 0 380 192q77 5 457 229l76 -13h5q31 32 164 48q107 -49 107 -157q0 -185 -173 -358q-113 -75 -143 -75q-130 61 -130 158q28 148 72 196v18h-16l-54 -80q-60 68 -83 68
q-248 -90 -695 -348h-69q-65 83 -81 88q62 317 702 954q359 322 404 426v8h-33q-514 -144 -582 -144l-7 -14v-89l24 -36v-31q-91 -178 -241 -178q-80 0 -145 93v88q0 98 120 245q0 53 59 94q145 -62 170 -62h48q47 0 47 32l39 -19zM244 1244v-92q0 -57 47 -70q83 26 83 94
v11q-16 120 -47 120h-24q-11 0 -59 -63zM1048 168v-47q2 -12 11 -12h31q127 99 172 265q0 8 11 64l-26 17h-92q-10 0 -36 -138q-71 -67 -71 -149z" />
    <glyph glyph-name="perthousand" unicode="&#x2030;" horiz-adv-x="1852" 
d="M244 1244v-92q0 -57 47 -70q83 26 83 94v11q-16 120 -47 120h-24q-11 0 -59 -63zM1456 168v-47q2 -12 11 -12h31q127 99 172 265q0 8 11 64l-26 17h-92q-10 0 -36 -138q-71 -67 -71 -149zM1048 168v-47q2 -12 11 -12h31q127 99 172 265q0 8 11 64l-26 17h-92
q-10 0 -36 -138q-71 -67 -71 -149zM1769 328q-31 -136 -162 -266q-113 -75 -143 -75q-130 61 -130 158q28 148 72 196v18h-16l-34 -51q-35 -125 -157 -246q-113 -75 -143 -75q-130 61 -130 158q28 148 72 196v18h-16l-54 -80q-60 68 -83 68q-248 -90 -695 -348h-69
q-65 83 -81 88q62 317 702 954q359 322 404 426v8h-33q-514 -144 -582 -144l-7 -14v-89l24 -36v-31q-91 -178 -241 -178q-80 0 -145 93v88q0 98 120 245q0 53 59 94q145 -62 170 -62h48q47 0 47 32l39 -19l628 145l31 -47v-28q0 -67 -796 -849q-178 -210 -216 -316
q-46 0 -116 -205v-33h47q48 0 380 192q77 5 457 229l76 -13h5q31 32 164 48q98 -44 102 -96l21 38q19 10 40 23l76 -13h5q31 32 164 48q92 -41 105 -127l5 -101z" />
    <glyph glyph-name="ampersand" unicode="&#x26;" horiz-adv-x="1523" 
d="M686 985q154 -96 154 -170q0 -69 -110 -331q-118 -133 -118 -137v-18q108 -89 167 -89h19l428 380q72 76 106 76v-27q-26 -76 -420 -471v-7q0 -25 179 -47q64 12 116 12l17 -34v-27q0 -43 -256 -73q-113 72 -177 72q-27 0 -197 -118q-208 -134 -295 -134q-20 0 -61 69
q0 37 170 299q22 40 22 84q-192 197 -192 353v36q0 217 448 302zM348 707q0 -212 159 -311h14q177 196 185 371q0 83 -37 95h-138q-183 -119 -183 -155zM408 -5l11 -6q159 72 251 160v6q0 11 -63 47h-38q-161 -173 -161 -207z" />
    <glyph glyph-name="quotesingle" unicode="'" horiz-adv-x="443" 
d="M187 1868q75 0 79 -179v-81q-16 -155 -56 -290l-23 -59q-72 -29 -47 86l12 78l4 67q10 224 -41 317q7 43 72 61z" />
    <glyph glyph-name="parenleft" unicode="(" horiz-adv-x="623" 
d="M476 1637q75 -20 73 -57q-238 -223 -267 -481q-27 -85 -70 -295q10 -64 8 -132q-1 -32 -15 -97q18 -463 282 -878l117 -167q-24 0 -24 -12q-170 5 -426 610q-90 229 -76 655v24q13 409 293 769z" />
    <glyph glyph-name="parenright" unicode=")" horiz-adv-x="665" 
d="M40 1710q168 0 374 -574q48 -301 48 -352l-12 -72q0 -9 13 -33l-13 -62l12 -47q-28 -344 -266 -763q-89 -156 -176 -199h-52v41q348 448 348 1028v24q0 627 -348 954q0 44 72 55z" />
    <glyph glyph-name="asterisk" unicode="*" horiz-adv-x="775" 
d="M600 860q44 -62 55 -140v-76q-13 -92 -66 -164q-49 58 -157 182q114 136 168 198zM574 467q-57 -59 -117 -71.5t-115 -0.5t-104 67q56 58 170 175q114 -117 166 -170zM229 470q-51 68 -60 154q0 95 38 170q9 17 29 45q54 -64 160 -188q-112 -123 -167 -181zM251 854
q42 37 86 57q92 41 194 -2q29 -13 63 -42q-58 -62 -175 -192q-111 120 -168 179z" />
    <glyph glyph-name="plus" unicode="+" horiz-adv-x="1136" 
d="M580 1064l54 3q4 -38 25 -37q-16 -123 -14 -157l12 -71q-17 -37 -15 -75v-8q2 -7 6 -7l87 13q51 -7 58 -6q3 0 37 11q41 -8 56 -7v13q55 -12 84 -46q4 -84 -327 -101l-4 -9l5 -102q5 -95 21 -231q-8 -56 -44 -82q-84 -4 -91 143l-12 259q-1 6 -20 15l-218 -10
q-39 -2 -106 -15q-51 16 -52 40v10q-3 46 316 85l77 4q20 1 29 342z" />
    <glyph glyph-name="plusminus" unicode="&#xb1;" horiz-adv-x="1080" 
d="M924 92q21 -10 41 -10v-46q-356 -76 -786 -76q-21 10 -41 10v46q0 37 96 54h149q20 0 40 14l26 -14q373 12 475 22zM590 1064l54 3q4 -38 25 -37q-16 -123 -14 -157l12 -71q-17 -37 -15 -75v-8q2 -7 6 -7l87 13q51 -7 58 -6q3 0 37 11q41 -8 56 -7v13q55 -12 84 -46
q4 -84 -327 -101l-4 -9l5 -102q5 -95 21 -231q-8 -56 -44 -82q-84 -4 -91 143l-12 259q-1 6 -20 15l-218 -10q-39 -2 -106 -15q-51 16 -52 40v10q-3 46 316 85l77 4q20 1 29 342z" />
    <glyph glyph-name="hyphen" unicode="-" horiz-adv-x="861" 
d="M578 477l181 -24v-22q0 -50 -563 -101q-36 0 -62 42q0 83 247 83q0 10 197 22z" />
    <glyph glyph-name="hyphen" unicode="&#xad;" horiz-adv-x="861" 
d="M578 477l181 -24v-22q0 -50 -563 -101q-36 0 -62 42q0 83 247 83q0 10 197 22z" />
    <glyph glyph-name="divide" unicode="&#xf7;" horiz-adv-x="1205" 
d="M1090 651l16 -45v-28q-316 -100 -705 -100l-27 -20l-28 19l-122 -16q-59 29 -59 62v17q0 55 134 77h147q24 0 48 19l29 -19q252 16 411 16h24zM628 968h11q71 0 114 -115q0 -70 -137 -136q-60 29 -91 100v66q32 85 103 85zM628 366h11q44 0 70 -148v-18
q-56 -130 -139 -130q-64 0 -80 148q41 148 138 148z" />
    <glyph glyph-name="period" unicode="." horiz-adv-x="428" 
d="M234 136q94 -15 94 -54v-28q0 -28 -63 -67h-32q-27 0 -54 51v57q0 41 55 41z" />
    <glyph glyph-name="slash" unicode="/" horiz-adv-x="789" 
d="M776 1988l26 -1q35 -13 32 -59q-257 -765 -567 -1604l-177 -500l-87 -22q16 202 571 1812q115 381 202 374z" />
    <glyph glyph-name="backslash" unicode="\" horiz-adv-x="762" 
d="M7 1904h26q82 2 131 -274q269 -991 510 -1711q-12 -34 -10 -63l-46 -1q-87 -2 -455 1235q-185 713 -187 789z" />
    <glyph glyph-name="zero" unicode="0" horiz-adv-x="742" 
d="M366 1753q218 0 289 -479q12 -84 12 -278v-133q-73 -637 -204 -737q0 -78 -142 -139q-95 0 -207 164q-73 297 -73 905v12q0 108 12 239q-12 36 -12 148q100 226 128 226q87 72 197 72zM163 960q39 -839 143 -839q114 0 215 540q0 71 36 358q-24 115 -24 182l12 59
q-74 371 -143 371h-91q-100 -93 -100 -288q-40 0 -48 -383z" />
    <glyph glyph-name="one" unicode="1" horiz-adv-x="915" 
d="M626 1650q74 -41 74 -131q-43 -477 -57 -1039l14 -112l-14 -80q14 -139 14 -241l-58 -49q-82 0 -104 467q29 226 43 527q-14 83 -14 190h-12q-25 0 -242 -367q-280 -385 -363 -385v35q344 427 344 480q239 400 345 688z" />
    <glyph glyph-name="two" unicode="2" horiz-adv-x="1612" 
d="M999 1624q195 -93 221 -340q-31 -367 -192 -576q-98 -169 -341 -418l2 -17q88 -124 606 -154h49q17 0 593 68q12 -130 -732 -203q-216 0 -715 148q-209 -157 -421 -175q-83 0 -153 134q104 271 364 271l276 -53q125 109 215 265q338 331 292 762q-49 139 -90 139
q-142 0 -360 -386q-29 -56 -24 -102h-40q-42 0 -57 65q-15 149 319 472q63 62 188 100zM65 129l4 -49q4 -16 14 -16q282 57 275 129l-33 21h-121q-77 0 -139 -85z" />
    <glyph glyph-name="three" unicode="3" horiz-adv-x="1163" 
d="M731 1654q162 0 205 -229q-42 -250 -228 -507l2 -25q299 -144 314 -361q27 -380 -618 -521q-123 -27 -225 -27q-328 0 -341 190q20 61 47 67h27q10 -146 259 -146q188 0 273 53q26 -13 39 -13q415 142 400 357q-16 225 -205 265h-38q-133 0 -241 -120l-64 -13h-12
q-27 0 -29 28l-2 40q-2 31 284 255q230 293 215 491q-15 92 -42 92h-63q-61 0 -214 -160h-40q-1 27 -16 27q36 139 287 257h26z" />
    <glyph glyph-name="four" unicode="4" horiz-adv-x="1343" 
d="M889 1693q150 -19 147 -62l-1 -24q-109 -72 -121 -235l-5 -81q-3 -196 -5 -226l-16 -68q19 -57 17 -77q531 58 588 57l-4 -37q-2 -45 -557 -117q-34 -20 -37 -42q-30 -426 85 -742l-39 -46q-163 3 -186 801l-20 11q-253 -63 -602 -103q-111 2 -142 130q50 191 605 626
q254 192 281 235h12zM123 864l-2 -23q-1 -20 31 -21q608 51 611 100l2 34q13 170 23 466q13 19 14 44l-20 11q-94 2 -605 -499q-49 -47 -54 -112z" />
    <glyph glyph-name="five" unicode="5" horiz-adv-x="914" 
d="M937 1687q23 -12 34 -12q63 12 120 12h19v-31q0 -79 -724 -151q-116 -81 -116 -137v-84q0 -173 299 -645q39 -79 61 -207q-35 -164 -207 -317q-76 -56 -267 -122q-176 0 -176 189q12 23 12 41h23q80 -108 162 -108q307 146 307 329q0 110 -275 572q-73 109 -73 388v110
q58 141 801 173z" />
    <glyph glyph-name="six" unicode="6" horiz-adv-x="923" 
d="M641 1700q119 0 200 -200q-26 -85 -56 -85h-16q-72 129 -100 129h-68.5t-168 -123t-208 -380.5t-80.5 -516.5h2q282 323 447 323q135 0 187 -253q0 -361 -316 -581q-111 -25 -164 -10q-290 113 -290 553q0 383 289 908q215 236 342 236zM180 350q57 -234 197 -234
q125 0 245 249q24 55 24 204q0 135 -77 135h-23q-224 -84 -354 -319q-12 -24 -12 -35z" />
    <glyph glyph-name="seven" unicode="7" horiz-adv-x="1368" 
d="M224 1713h25l287 -66q324 13 421 40q61 -22 61 -82q-108 -254 -108 -630v-11h10q80 0 372 -13l25 13q39 -26 61 -26v-57q-480 -43 -480 -76q-12 -217 -12 -329v-26l36 -263q-7 -199 -62 -199h-24q-17 0 -62 67v106q-24 319 -24 354v172l12 130l-22 12h-155
q-528 -43 -744 -119l-51 41q74 156 915 200h47q22 0 22 37q0 164 60 512l-34 25q-32 0 -239 -13q-387 57 -387 133q23 62 50 68z" />
    <glyph glyph-name="eight" unicode="8" horiz-adv-x="824" 
d="M560 1833q146 -65 146 -175q0 -53 -276 -610v-23q216 -402 216 -530l12 -22q-56 -475 -350 -475q-204 74 -230 381q0 227 179 634q-110 180 -227 437q0 60 144 94q0 86 277 266zM178 1405q114 -226 130 -228h34q228 393 228 493q-12 22 -12 32h-46q-114 0 -263 -172
q-35 0 -71 -125zM321 873q-119 -332 -119 -504v-12q39 -251 130 -251h12q177 86 178 355q0 139 -156 412h-45z" />
    <glyph glyph-name="nine" unicode="9" horiz-adv-x="1079" 
d="M826 1723q74 -30 74 -91q0 -52 -12 -52q12 -88 24 -719q0 -662 -385 -825q-68 -38 -133 -38h-36q-63 0 -108 13q-63 -13 -120 -13q-179 13 -194 65v15h26q63 0 108 -13q451 0 611 252q95 212 95 493v13q0 339 -45 339q-286 -341 -445 -341q-140 0 -182 229q0 535 373 635
h25q103 0 227 -137l44 151q0 8 53 24zM240 1139v-127q23 -61 82 -61q158 0 347 366q11 21 11 49q-82 188 -130 188h-120q-190 -137 -190 -415z" />
    <glyph glyph-name="colon" unicode=":" horiz-adv-x="623" 
d="M332 627h11q66 0 107 -83q0 -55 -128 -102q-57 21 -87 74v48q32 63 97 63zM360 219h11q42 0 66 -107v-14q-54 -95 -130 -95q-61 0 -76 109q39 107 129 107z" />
    <glyph glyph-name="comma" unicode="," horiz-adv-x="420" 
d="M265 328q97 0 97 -97v-25q-40 -266 -77 -274l-142 -213l-113 -113h-42v44q39 26 205 395q11 20 23 114l-12 85q28 84 61 84z" />
    <glyph glyph-name="semicolon" unicode=";" horiz-adv-x="488" 
d="M301 446q50 0 103 -131q0 -116 -95 -116q-60 30 -91 131q0 116 83 116zM289 100h58q13 -67 13 -77q-100 -276 -142 -346q-23 -6 -180 -232h-51v39q48 56 130 250q37 0 123 318z" />
    <glyph glyph-name="semicolon" unicode="&#x37e;" horiz-adv-x="488" 
d="M301 446q50 0 103 -131q0 -116 -95 -116q-60 30 -91 131q0 116 83 116zM289 100h58q13 -67 13 -77q-100 -276 -142 -346q-23 -6 -180 -232h-51v39q48 56 130 250q37 0 123 318z" />
    <glyph glyph-name="equal" unicode="=" horiz-adv-x="1388" 
d="M966 691q76 0 175 -40v-25l-16 -34q-24 0 -47 12q-62 0 -807 -74v39q0 104 695 122zM584 290q31 0 95 -12q160 12 310 12h82q36 -6 36 -37v-25h-36q-230 -37 -858 -74q0 25 -11 25q0 111 382 111z" />
    <glyph glyph-name="at" unicode="@" horiz-adv-x="1788" 
d="M1397 999q79 -135 79 -229q0 -452 -348 -544q-9 0 -9 -14q-200 56 -200 177h-11q-226 -183 -324 -183h-13q-67 41 -67 100v10q0 182 336 388q55 29 129 50q103 0 132 -160q-49 -103 -49 -124q0 -106 57 -132h6q233 19 258 431q-31 182 -188 300q-74 55 -246 45
q-280 -60 -411 -264q-99 -140 -143 -362q-9 -66 -9 -104v-29q24 -269 164 -392q120 -84 272 -84q301 13 610 233q183 161 80 1q-234 -265 -640 -337l-69 -10q-463 35 -540 524l8 139q43 360 281 587q230 202 469.5 194t385.5 -211zM617 333l9 -4h23q264 127 319 288
q0 4 -19 14h-17q-163 0 -315 -270v-28z" />
    <glyph glyph-name="A" unicode="A" 
d="M663 1807h15q49 0 81 -493q149 -607 246 -840q19 0 64 -210q13 0 54 -159q0 -88 -43 -88q-69 0 -186 345q-527 -21 -686 -78l-34 37v33q72 79 600 133l64 10q-123 522 -184 635l-30 31l15 28q-38 251 -38 307h-1q-126 41 -447 -1114q-39 -166 -39 -195q0 -59 25 -147
q-74 -248 -111 -248q-84 0 -80 76q129 938 530 1721q157 208 185 216z" />
    <glyph glyph-name="B" unicode="B" horiz-adv-x="803" 
d="M412 1895h28q190 0 208 -281q0 -210 -365 -686v-17l134 22q316 -95 316 -403v-24q0 -362 -460 -549q-211 0 -211 499q-12 0 -12 161q-21 5 -50 72q50 122 50 158v24q0 80 -13 94q13 88 13 138v328q12 378 85 391h47l15 -61l-10 -61h1q28 70 224 195zM173 1541v-73
q0 -78 -12 -182l12 -48q-12 -109 -12 -184v-48l9 -61q254 205 345 585q10 0 10 35v61q0 129 -110 146h-18q-224 -172 -224 -231zM161 689q48 -633 97 -633h24q151 0 317 283q12 95 35 134q0 349 -301 349q-172 -64 -172 -133z" />
    <glyph glyph-name="C" unicode="C" horiz-adv-x="917" 
d="M572 1882q200 -14 272 -296l-1 -21l-46 -26l-36 3q-63 236 -250 248q-223 -63 -289 -298q-52 -96 -84 -433q-32 -849 391 -991q176 -36 409 217l25 -57q-218 -301 -483 -283q-240 74 -380 381q-109 315 -82 742l7 104q17 265 187 518q201 202 360 192z" />
    <glyph glyph-name="D" unicode="D" horiz-adv-x="942" 
d="M280 1901h56q545 -221 605 -884q-5 -493 -506 -920q-172 -122 -341 -177h-82q0 24 -18 60q112 40 112 46q-27 139 -27 148q-13 1330 -25 1594h-19q40 133 245 133zM199 1767v-294q0 -55 7.5 -133t6.5 -137t-1 -177.5v-275.5v-80l14 -80q0 -27 -13 -27q26 -372 26 -470h23
q507 344 540 752l10 126q-15 534 -458 785q-46 25 -101 25h-39q-15 -2 -15 -14z" />
    <glyph glyph-name="E" unicode="E" horiz-adv-x="1061" 
d="M213 1489v-526q2 -11 10 -11h11q407 83 683 103q22 -11 45 -11v-32q-70 -45 -621 -152q-140 -33 -140 -105q35 -538 35 -700q7 -45 22 -45h11q437 69 715 69q158 -11 16 -72l-824 -138q-71 11 -71 47q0 56 12 73q-36 416 -36 753q-23 74 -23 109q23 37 23 65
q0 164 12 344q0 6 -12 150q10 90 12 184h3q1 13 1 35l-12 23q0 168 754 222h81l69 -13v-56q-145 -37 -637 -95q-138 -42 -138 -55v-166h-1z" />
    <glyph glyph-name="F" unicode="F" horiz-adv-x="803" 
d="M918 1855q96 -22 96 -64q-71 -45 -671 -106q-145 -40 -145 -53v-652q2 -10 11 -10h11q417 81 700 100q23 -11 46 -11v-31q-72 -44 -610 -139q-170 -39 -170 -109l48 -845q-49 -28 -87 -28q-59 21 -59 46q0 54 12 71q-36 419 -36 743q-24 72 -24 106q24 36 24 62
q0 158 12 332q0 5 -12 144q12 105 12 196l-12 22q0 149 648 204z" />
    <glyph glyph-name="G" unicode="G" horiz-adv-x="1225" 
d="M743 1898q330 0 386 -448q0 -101 -114 -205h-46q28 169 28 232v26q-29 131 -117 208t-241 38q-185 0 -415 -427q-92 -318 -92 -621v-122q48 -587 344 -587q235 111 428 562l13 166l-15 7q-261 -53 -304 -53q-39 0 -39 40v14q0 79 619 164l22 -49q-137 -60 -137 -143
q-27 -123 -27 -176v-42q0 -155 54 -297v-29q0 -29 -63 -67h-18q-34 4 -92 132v98h-18q-182 -373 -459 -462q-226 0 -359 309q-81 265 -81 507q0 894 634 1211q15 0 109 14z" />
    <glyph glyph-name="H" unicode="H" horiz-adv-x="1481" 
d="M1149 2009q48 0 76 -53q-51 -137 -60.5 -316.5t-18.5 -537.5q-15 -904 159 -971q57 5 82 31t99 129l39 -55q-103 -227 -264 -227q-218 36 -254 648l-5 148q14 51 14 114q-17 8 -28 8q-728 -77 -728 -179v-341q28 -309 28 -330v-28q0 -1 23 -1q-65 -110 -65 -135h-40
q-95 0 -95 885q-14 86 -14 485q0 520 95 520h18l54 -36l-18 -34q0 -141 -13 -436q0 -157 12 -368q490 93 537 93h192q12 0 32 45q-1 253 13 520q39 266 68.5 344t61.5 78z" />
    <glyph glyph-name="I" unicode="I" horiz-adv-x="463" 
d="M191 2286q108 -47 138 -47v-46q0 -95 -101 -125q-52 0 -93 77v81q0 17 56 60zM254 1829l19 -36q-26 -125 -26 -140v-50q0 -132 -12 -388h20l-21 -41v-22q0 -24 15 -50q-15 -27 -15 -38q0 -24 14 -48l-14 -65q63 -869 63 -946l-35 -18q-91 0 -91 150q-54 507 -58.5 679.5
t-4.5 315t25 667.5q56 30 121 30z" />
    <glyph glyph-name="J" unicode="J" horiz-adv-x="1023" 
d="M1525 1951q57 -22 57 -50v-28l-45 -47l-29 15q-826 -87 -826 -132q-12 -47 -12 -81q-30 -354 -15 -610.5t15 -351.5v-84q0 -322 -130.5 -458.5t-307.5 -128.5t-236 115q-50 151 75 193h28l36 -18l-24 -79v-10q0 -50 146 -98q73 -10 150.5 39.5t106 173.5t22.5 295.5
t-19 391.5q13 621 33 724h-20q-105 -2 -247 -24.5t-291 -22.5h-84v36q0 87 677 121q104 23 940 119z" />
    <glyph glyph-name="K" unicode="K" horiz-adv-x="1302" 
d="M1076 1912v-44q-231 -407 -741 -1006q-47 -46 -47 -61q351 -391 718 -580q332 -167 332 -187v-38q-23 0 -48 -14q-343 74 -1045 651h-24l-7 -14q12 -86 12 -98q0 -60 -13 -78q13 -124 13 -197v-200q0 -51 -48 -89q-78 21 -78 102q0 836 -53 1622q18 213 63 213h13
q58 0 75 -587q13 0 15 -448h-6q499 535 785 1037z" />
    <glyph glyph-name="L" unicode="L" horiz-adv-x="1134" 
d="M102 1908h13q48 0 74 -196l-12 -25v-299l13 -75l-13 -25q76 -1181 97 -1181q246 -24 252 -24q329 0 545 24q53 -13 97 -42q0 -81 -134 -81q-31 0 -97 12l-71 -12q-50 0 -50 11l-107 -11h-13q-154 0 -352 -12q-65 12 -105 12l-24 -12q-78 0 -88 134v36l-73 1378v278
q0 101 48 110z" />
    <glyph glyph-name="M" unicode="M" horiz-adv-x="1255" 
d="M1131 1924q0 -41 -5 -132q-56 -624 -36 -1042.5t87 -737.5q-47 -47 -150 -25q-74 704 -81.5 927t21.5 542h6q-46 -66 -183 -393q-72 -135 -149 -135q-205 0 -421 399l-2 -4q-40 -704 71 -1288q-30 -78 -57 -78h-69.5t-92.5 870l15 58q0 28 -15 155q15 443 15 615l19 84
h41q32 -3 192 -307q207 -359 275 -364h29q87 0 406 856h84z" />
    <glyph glyph-name="N" unicode="N" horiz-adv-x="1210" 
d="M900 1953h71q76 -47 51.5 -159.5t-10 -386t10 -590.5t-7.5 -728q-1 -65 -63 -97h-50q-326 608 -521 1102q-125 253 -174 294h5v-2q-2 -304 8 -603.5t31.5 -499t48.5 -364.5q0 -31 -61 -56q-78 1 -115.5 463t-40.5 621.5t-24 693.5q29 72 64 80h33q207 -268 438 -835
q241 -540 263 -553.5t28 13.5t7.5 117t5 253.5t0 361.5t-9 403.5t-36.5 416.5q1 29 48 55z" />
    <glyph glyph-name="O" unicode="O" horiz-adv-x="879" 
d="M487 1855q278 0 328 -429q13 -149 14 -347q-60 -1069 -412 -1092q-256 9 -373 514q-39 226 -25 466.5t128 564.5q176 308 340 323zM134 883q21 -632 286 -756h56q243 176 236 1094q0 43 -10 125q-44 413 -214 407h-36q-184 -59 -294 -574q-17 -116 -24 -296z" />
    <glyph glyph-name="P" unicode="P" horiz-adv-x="657" 
d="M349 1867q427 -53 427 -380q0 -306 -519 -797q-36 0 -36 -53v-31q0 -69 11 -141l-11 -66q0 3 14 3l-14 -67v-118q0 -74 12 -247l-87 -13q-24 0 -46 43v331q10 231 -1 479q0 14 11 35q-12 326 -16 421q4 134 2 195t-5.5 119.5t-3.5 167.5q11 82 262 119zM210 1691
q1 -473 21 -901h5q354 321 399 622q-7 332 -277 342l-72 -4q-64 -5 -76 -59z" />
    <glyph glyph-name="Q" unicode="Q" horiz-adv-x="1026" 
d="M475 1823q265 8 329 -369q76 -585 -43 -1147q71 -128 300 -274q7 -46 -34 -51l-11 -1q-51 -30 -296 176l-27 -4q-96 -194 -292 -189q-166 34 -273 215.5t-125 555.5q23 536 173 803t299 285zM150 661q73 -481 270 -561l74 9q102 74 94 149q-147 177 -149 206l43 76
q151 -142 159 -141q118 554 51 1029q-72 322 -266 267q-221 -137 -279 -772q-5 -195 3 -262z" />
    <glyph glyph-name="R" unicode="R" horiz-adv-x="1011" 
d="M504 1830q307 -138 298 -430q-13 -303 -438 -630l-1 -1q264 -310 339.5 -418t147 -210t192 -98t-34 -76t-254 102t-348.5 490q-102 124 -152 140l-4 -135q-2 -87 8 -132q-14 -80 -16 -157l-18 -232q0 -23 13 -47q-52 -108 -80 -107q-47 12 -44 110q1 32 8 63.5t-3 63.5
t13 183l-10 85q5 82 1 528.5t-27 617.5q2 76 256 257q119 34 154 33zM227 1559q6 -332 18 -711l15 -7l6 -1q164 57 340 348q63 129 58 297q-26 145 -135 213l-44 12q-184 15 -258 -151z" />
    <glyph glyph-name="S" unicode="S" horiz-adv-x="806" 
d="M419 1861q120 -27 120 -121q0 -37 -37 -37h-17q-44 36 -79 36h-9q-277 -117 -259 -413q19 -170 276 -380q305 -247 305 -466q-16 -223 -216 -370q-150 -123 -445 -123h-25l-72 14v23q0 28 335 85q153 69 230 165.5t48.5 256.5t-345.5 419q-220 201 -220 394
q0 132 183 369q150 148 227 148z" />
    <glyph glyph-name="T" unicode="T" horiz-adv-x="886" 
d="M1339 1847q-100 -74 -832 -117l-5 -393l1 -371q0 1 20 1l-20 -41q4 -830 115 -830q0 -22 27 -37h21q70 0 166 136h51q-100 -248 -266 -248h-12q-211 0 -221 708q-5 159 -5.5 218t-0.5 607q0 26 -15 61q15 24 15 47l4 141h1q-470 -37 -651 -37l-17 34q0 97 1481 152
q92 14 143 -31z" />
    <glyph glyph-name="U" unicode="U" horiz-adv-x="1491" 
d="M385 1687q128 0 128 -820v-103q0 -51 13 -102q-13 -52 -13 -103v-397q0 -205 67 -244h5q124 126 325 952q61 215 104 773l46 31h30q40 0 51 -76q0 -107 -38 -309q0 -189 -13 -358q0 -820 217 -820q79 14 245 269q25 -48 25 -67q-147 -318 -323 -318q-280 101 -280 691
l-9 52q-11 -11 -144 -529q-120 -387 -242 -432h-40q-105 0 -154 384q12 450 12 616q0 769 -56 769q-251 -455 -251 -1030l-54 -56q-36 70 -36 112q0 482 258 1007q84 108 127 108z" />
    <glyph glyph-name="V" unicode="V" horiz-adv-x="835" 
d="M919 2007q59 -15 59 -74q-108 -525 -373 -1311q-181 -645 -276 -645h-12q-128 0 -271 1137q-11 25 -142 651q0 27 57 62q114 0 261 -972q88 -690 116 -690q40 21 310 919q205 687 221 906q32 17 50 17z" />
    <glyph glyph-name="W" unicode="W" horiz-adv-x="1842" 
d="M1855 2156h28l9 -5q0 5 34 5l17 -36q-113 -682 -389 -1688q-86 -424 -126 -424h-25q-99 0 -139 222q-49 119 -236 895h5q-29 -39 -220 -781q-85 -472 -197 -575h-17q-123 0 -327 1090q-106 482 -314 689v30q0 38 54 38q136 -59 260 -272q158 -522 288 -1185q19 0 38 -163
h12q10 1 177 643q117 452 203 734q29 17 61 17q80 0 238 -763q35 -66 74 -305q18 0 27 -75v0q21 0 150 606q164 431 277 1191v36h-19q29 76 57 76z" />
    <glyph glyph-name="X" unicode="X" horiz-adv-x="1246" 
d="M1184 1919q64 -24 64 -59q-283 -213 -445 -485q-175 -230 -198 -335q534 -779 604 -1014q-14 -28 -14 -53h-69q-34 10 -130 222q-419 666 -458 680q-75 -46 -284 -625q-281 -653 -281 -808l-37 -19q-43 0 -43 40q0 275 550 1543v14q0 19 -327 512q-115 166 -115 203v27
q0 44 66 54q67 0 180 -228l280 -421h13q281 436 471 628q130 124 173 124z" />
    <glyph glyph-name="Y" unicode="Y" horiz-adv-x="1110" 
d="M1304 1843h52l16 -62q0 -24 -921 -1619q-75 -151 -75 -184l-75 1l-14 77q99 252 423 809v1q-269 126 -551 470q-210 262 -254 415q14 27 14 50l65 -1q25 -3 234 -321q398 -478 531 -479h21q64 40 247 408q171 334 287 435z" />
    <glyph glyph-name="Z" unicode="Z" horiz-adv-x="1080" 
d="M1033 1809q66 -16 66 -96q-334 -454 -608 -977q-380 -514 -392 -641q202 0 763 55q184 -14 184 -66q0 -51 -788 -94q-144 -40 -252 -40h-26q-44 0 -53 65q0 46 988 1640v9v0q-389 -39 -489 -39q-354 30 -354 107q17 51 40 51q150 -27 210 -27h26q384 0 685 53z" />
    <glyph glyph-name="bracketleft" unicode="[" horiz-adv-x="1199" 
d="M181 376q-65 -70 -65 -238q9 -72 43 -72q123 84 123 246q-65 64 -101 64zM607 1077q-20 -461 18 -649l4 -1q159 384 208 615t61.5 389t-13.5 291t-122 92q-134 -66 -156 -737zM326 -160q-354 -511 -354 -963v-36q0 -235 73 -263h70q207 0 239 695v72q0 495 -28 495z
M464 24v-111q12 -179 12 -280q0 -1043 -347 -1153h-86q-157 0 -169 253v168q0 362 387 996q69 76 69 141q-12 23 -12 26h6q-125 -120 -185 -120h-12q-115 0 -145 192q0 180 185 372l29 14h44l72 -60h1q41 48 78 48q43 0 73 -121l-12 -61v-118l12 -60v-12q54 85 55 93l3 70
q-43 353 -29 672l5 120q29 693 244 794q44 23 80 22q181 -9 161 -464l-1 -37q-24 -405 -325 -1141l-4 -81h11q12 -1 95 242l57 39h16q31 -1 73.5 -158.5t58.5 -180t46 -31.5t132 79q-3 -31 12 -32q-23 -83 -80 -120t-93 -33t-87.5 54t-91.5 217h6q-121 -233 -175 -231l-30 1
q-64 101 -64 73q-40 -55 -75 -81z" />
    <glyph glyph-name="less" unicode="&#x3c;" horiz-adv-x="424" 
d="M77 89q-97 -76 -130 -107q-53 -57 -63.5 -10t32.5 90t138 129q20 13 28 18q-12 266 -5 411q8 149 89 270.5t185.5 115t122 -75.5t-22 -87t-83 31.5t-106 -38.5t-68.5 -225q-5 -124 3 -333q112 77 171 105q82 38 76.5 -2.5t-133.5 -125.5q-75 -50 -104 -88
q3 -111 9.5 -209t-2 -394.5t-112.5 -399t-142 -66.5t40 105t92 333t-9 457z" />
    <glyph glyph-name="greater" unicode="&#x3e;" horiz-adv-x="683" 
d="M240 1906q141 0 169 -288v-37q0 -356 -193 -1049q-48 -74 -83 -224v-70h24q68 339 209 430l30 15q97 -46 97 -170q-7 -134 -132 -292q0 -72 88.5 -139t224.5 186l46 -50q-209 -426 -462 -102h-18q-29 0 -112 -144h-32q-34 0 -71 204h-8l-110 -106h-42v29q140 181 146 223
v155v35q-24 290 -29.5 490.5t12.5 462.5q24 441 246 441zM106 1560q-13 -250 -9.5 -546.5t23.5 -475.5v0q60 0 189 820l14 126q0 324 -83 324h-36q-66 3 -98 -248zM241 260q2 -10 11 -10q94 0 143 252v23q0 9 -26 23q-47 0 -128 -288z" />
    <glyph glyph-name="bracketright" unicode="]" horiz-adv-x="3433" 
d="M1848 2172q23 -12 36 -12v-48q-336 -604 -384 -636h-12q-50 21 -132 288v24q4 24 24 24h12q25 -3 108 -180h12q302 520 336 540zM612 1860q411 0 588 -480v-48q-36 -12 -36 -24l-24 12q-160 -72 -192 -72q-144 0 -180 192q0 105 156 192q-109 120 -288 120h-108
q-240 0 -396 -288q-48 -156 -84 -156h-12q-27 0 -36 60q0 229 348 444q145 48 264 48zM2352 1860q415 0 588 -480v-48q-36 -12 -36 -24q-60 20 -60 60h-12q-96 -96 -180 -96q-144 0 -180 192q0 105 156 192q-88 96 -252 96h-108q-235 0 -396 -288q-48 -156 -84 -156h-12
q-30 0 -36 48q0 268 384 468q123 36 228 36zM336 564q427 -288 936 -288q0 -12 192 -12h120q713 0 1044 276h48q24 -4 24 -24v-12q0 -97 -540 -420q-88 -84 -144 -84h-12q-17 0 -36 36v24q0 11 132 120v12h-12q-241 -36 -360 -36v-24q0 -92 -48 -108h-240q-204 0 -204 48v84
l-360 48q0 -22 156 -132v-48q0 -24 -24 -24h-48q-594 390 -672 480v24q1 17 48 60zM1272 156v-84h180v72q-60 0 -180 12zM1500 144v-72h36l144 -12v84h-180z" />
    <glyph glyph-name="braceright" unicode="}" horiz-adv-x="3491" 
d="M728 1884q415 0 588 -480v-36q0 -9 -36 -36q-48 0 -132 228q-181 216 -396 216h-108q-235 0 -396 -288q-48 -156 -84 -156h-12q-30 0 -36 48q0 268 384 468q123 36 228 36zM2468 1884q411 0 588 -480v-48q-36 -12 -36 -24q-48 0 -132 228q-181 216 -396 216h-108
q-235 0 -396 -288q-48 -156 -84 -156h-12q-30 0 -36 48q0 268 384 468q123 36 228 36zM728 1500q188 0 228 -252q0 -204 -252 -240q-204 0 -240 252q0 212 264 240zM2456 1500q204 0 240 -252q0 -204 -252 -240q-204 0 -240 252q0 204 252 240zM452 564q427 -288 936 -288
q0 -12 192 -12h120q713 0 1044 276h48q24 -4 24 -24v-12q0 -99 -612 -468q0 -12 -48 -36h-36q-17 0 -36 36v24q0 11 132 120v12h-12q-241 -36 -360 -36v-24q0 -92 -48 -108h-240q-204 0 -204 48v84l-360 48q0 -22 156 -132v-48q0 -24 -24 -24h-48q-594 390 -672 480v24
q1 17 48 60zM1388 156v-84h180v72q-60 0 -180 12zM1616 144v-72h36l144 -12v84h-180z" />
    <glyph glyph-name="braceleft" unicode="{" horiz-adv-x="5616" 
d="M1284 2076h72q499 0 672 -396q0 -18 24 -108q-12 -44 -48 -72q-43 0 -108 240q-166 228 -504 228h-108q-445 0 -600 -348q0 -132 -48 -132h-12q-24 0 -48 72q0 276 408 456q188 60 300 60zM3792 2076h72q499 0 672 -396q0 -18 24 -108q-12 -44 -48 -72q-51 0 -96 228
q-174 240 -516 240h-108q-474 0 -600 -372q0 -94 -48 -108h-12q-24 0 -48 72q0 276 408 456q188 60 300 60zM264 1584q221 0 252 -264q0 -220 -264 -252q-220 0 -252 264q0 221 264 252zM4956 1548q221 0 252 -264q0 -220 -264 -252q-220 0 -252 264q0 221 264 252z
M1572 1428q173 -168 756 -168q0 -12 444 -24q630 0 732 108h48q384 -375 384 -720v-12q0 -612 -1308 -612q-1119 0 -1572 384q-84 152 -84 276q0 395 588 768h12zM1080 708v-108q0 -381 1200 -480q102 0 360 -12q1188 0 1188 444v108q0 239 -276 552q-21 12 -48 12
q-177 -84 -504 -84h-24v-12l96 -288q0 -168 -312 -168h-60q-195 0 -252 108q-70 -108 -228 -108q-384 58 -384 204q48 167 108 312q-163 0 -384 120h-24q-456 -343 -456 -600zM2052 1164q-108 -209 -108 -288q36 -84 324 -96q84 17 84 48v12q0 102 12 300q-29 12 -312 24z
M2556 1128q0 -26 -12 -132q0 -216 60 -216h180q180 0 180 48v12q0 133 -132 288h-276z" />
    <glyph glyph-name="bar" unicode="|" horiz-adv-x="1514" 
d="M1255 880l12 -24v-492q0 -247 -188 -247q-105 16 -105 106v35q43 94 140 94q84 -12 94 -12v399q-40 0 -328 -94v-399q0 -246 -188 -246q-105 15 -105 106v11q0 98 129 118l105 -12v504q0 47 434 153zM270 809q246 0 246 -246l-35 -23q-43 132 -94 140h-94v-387
q0 -246 -187 -246q-106 15 -106 106v11q0 98 129 118l106 -12v504q0 17 35 35z" />
    <glyph glyph-name="asciicircum" unicode="^" horiz-adv-x="730" 
d="M455 1259q65 -96 140.5 -181t42.5 -110.5t-125.5 68.5t-139.5 134q-87 -66 -159 -150t-111.5 -61.5t36 104.5t163.5 187t153 9z" />
    <glyph glyph-name="underscore" unicode="_" horiz-adv-x="1219" 
d="M218 -105l21 7q427 -49 710 -34l33 -19l9 -13q21 -34 -21 -51q-222 -53 -713 -19l-54 24l-15 24q-16 24 30 81z" />
    <glyph glyph-name="grave" unicode="`" horiz-adv-x="73" 
d="M-138 1643q252 -164 490 -281v-57h-26q-358 82 -528 260v29q0 41 64 49z" />
    <glyph glyph-name="a" unicode="a" horiz-adv-x="551" 
d="M400 570q20 -38 20 -55q0 -45 -26 -211q0 -24 37 -170h13q27 15 151 234h24l40 -20q-127 -288 -234 -357h-33q-66 16 -99 170h3q-154 -236 -242 -236q-79 0 -84 164l5 112q59 340 339 340zM80 137q-2 -72 8 -94h12q154 159 176 289q0 78 -78 78q-65 0 -118 -273z" />
    <glyph glyph-name="b" unicode="b" horiz-adv-x="563" 
d="M135 1762h40q-24 -126 -39 -841v-96v-156q12 -191 12 -215h-2q0 151 189 288h56q117 -79 117 -265v-24q0 -386 -322 -553h-111q-25 0 -49 46v53l134 -13h31q207 123 207 419v71q-22 156 -71 156q-90 0 -132 -612h-48q-121 0 -125 722q-6 332 6 561q10 459 107 459z" />
    <glyph glyph-name="c" unicode="c" horiz-adv-x="386" 
d="M179 616q71 0 118 -102q-10 -62 -64 -46q-32 64 -53 66q-69 -42 -82.5 -178.5t21 -201.5t83.5 -60q80 17 200 229l43 -49q-90 -179 -156 -237t-146 -58q-116 25 -153 141t-16.5 221t82 188t123.5 87z" />
    <glyph glyph-name="d" unicode="d" horiz-adv-x="644" 
d="M348 1858h13q36 -6 36 -37l-48 -720v-72q0 -187 12 -311v-49q0 -58 36 -103v-45l-24 -36q16 -324 119 -384q36 0 69 38.5t72 120.5q61 82 58 -23q-38 -146 -109 -207t-150 -27q-97 66 -119 165l-16 8v0q-95 -252 -213 -252q-121 0 -121 205v12q0 359 275 523l-11 137
q27 1057 121 1057zM91 46q103 0 160 347q-24 109 -24 119h1q-116 0 -155 -300q-7 -124 18 -166z" />
    <glyph glyph-name="e" unicode="e" horiz-adv-x="454" 
d="M202 656q119 0 123 -145q0 -185 -107 -350q13 -33 22 -33h36q80 0 181 157q24 -46 24 -65q-92 -226 -242 -226q-102 12 -142 12q0 -21 -104 -50l-18 36v21q60 47 60 88q-48 155 -48 242q0 237 215 313zM97 343q0 -72 46 -114q84 88 84 268q-14 37 -23 37h-33
q-74 -38 -74 -191z" />
    <glyph glyph-name="f" unicode="f" horiz-adv-x="454" 
d="M-473 -1185q32 -234 151 -234h24q108 -12 204 156t132 497.5t36 585.5v-2h-4q-543 -566 -543 -1003zM207 377v-252h6l185 164h30v-40l-221 -294q-24 -862 -130.5 -1110t-200 -310t-163.5 -62h-72q-210 57 -210 305v94q0 333 459 885q198 246 198 320q5 158 4.5 161.5
t-27 -35t-93 -93.5t-87 -55t-20.5 27.5t70.5 104.5t133.5 229q-10 179 4 313.5t75 211t145 50.5t68 -192.5t-57.5 -255t-96.5 -166.5zM201.5 554q12.5 21 33 95.5t31 145.5t-7 76.5t-42 -42.5t-31.5 -155t-1.5 -124t18 4z" />
    <glyph glyph-name="g" unicode="g" horiz-adv-x="1018" 
d="M203 540h53q55 -28 55 -60h24l62 37q70 -16 70 -107q-24 -113 -24 -179v-63h23q362 290 583 300q56 -21 56 -45q0 -54 -42 -70l-53 13h-9q-238 -43 -548 -344q-22 -37 -22 -67v-12q0 -127 12 -179q0 -898 -526 -1218q-151 -67 -246.5 -45.5t-142.5 87.5t-51 215
q0 413 816 1192v83h-11q-102 -81 -171 -96q-124 0 -142 176q0 208 234 382zM95 194v-35q0 -63 39 -63q66 0 147 208v21q-17 38 -79 89q-68 0 -107 -220zM281 -139q-402 -400 -402 -443q-40 0 -206 -271q-102 -220 -87.5 -376.5t177.5 -186.5q206 0 442 432q100 271 100 699
v60q0 81 -24 86z" />
    <glyph glyph-name="h" unicode="h" horiz-adv-x="715" 
d="M373 1909q181 -9 162 -464l-1 -37q-25 -405 -326 -1141l-4 -81h11q12 -1 96 242l57 39h16q31 -1 73 -158.5t58.5 -180t46 -31.5t131.5 79q-2 -31 12 -32q-22 -83 -79 -120t-93 -33t-87.5 54t-92.5 217h6q-121 -223 -174 -221l-28 1q-66 48 -66 35q-76 -65 -136 -62l2 41
q113 126 114 135l2 71q-43 393 -28 711l5 120q29 693 244 794q43 23 79 22zM159 1077q-20 -461 17 -649l5 -1q158 384 207.5 615t61.5 389t-13.5 291t-121.5 92q-135 -66 -156 -737z" />
    <glyph glyph-name="i" unicode="i" horiz-adv-x="322" 
d="M146 898l38 -2q36 -8 35 -39l-3 -37q-8 -32 -74 -57q-46 14 -60 65q31 65 64 70zM96 529q28 -25 26.5 -103t-6.5 -197q8 -120 54 -136l19 -1q36 19 100 124q19 38 41.5 30t9.5 -44q-2 -25 -51.5 -103.5t-122.5 -111.5l-40 -8q-132 13 -115 385q24 168 85 165z" />
    <glyph glyph-name="j" unicode="j" horiz-adv-x="318" 
d="M145 885l19 -37q0 -104 -96 -104l-31 47v29q0 45 108 65zM117 589h17q36 -6 36 -37v-36q0 -25 -24 -229v-107l-4 -126h4q106 155 227 279h30v-29l-237 -386q4 -1155 -368 -1358l-72 -25q-218 0 -218 265q0 358 532 1138q8 129 -14 241h-18q-100 -137 -183 -137v30
q223 229 223 372q0 97 69 145zM-396 -1176q1 -136 66 -173.5t147 28.5q204 217 231 925l-7 185h6q-212 -256 -370 -634q-63 -179 -73 -331z" />
    <glyph glyph-name="k" unicode="k" horiz-adv-x="1023" 
d="M255 1926q141 0 169 -288v-37q0 -356 -193 -1049q-48 -74 -83 -224v-70h24q68 339 209 430l30 15q97 -46 97 -170q-7 -134 -131 -291q28 -87 174 -198.5t239 -91.5q137 6 262 198h37q-45 -140 -157 -224.5t-199 -77.5q-148 0 -459 288h-19q-29 0 -112 -144h-32
q-34 0 -71 204h-7l-100 -126h-43v29q136 186 136 242q-6 173 -15 327t-14.5 354.5t12.5 462.5q24 441 246 441zM121 1580q-13 -250 -9.5 -546.5t23.5 -475.5v0q60 0 194 848l9 76q0 346 -83 346h-36q-66 3 -98 -248zM256 280q2 -10 11 -10q94 0 143 252v23q0 9 -26 23
q-47 0 -128 -288z" />
    <glyph glyph-name="l" unicode="l" horiz-adv-x="503" 
d="M394 1882q182 0 182 -361t-289 -1157q-83 -146 -83 -175v-11q9 -87 51.5 -103.5t79.5 -0.5t87 71.5t97 160.5h71q-34 -88 -76.5 -160.5t-107.5 -123.5t-120 -59t-171 81q-15 0 -96 -156h-29q-12 36 -34 36l102 256v8q-43 253 -51.5 360.5t-8.5 444.5q52 732 352 879z
M108 753q16 -419 47 -419q61 0 275 794q48 344 48 393.5t-15 146.5t-67 104l-37 -12q-107 -28 -215 -410q-33 -208 -32.5 -354t-3.5 -243z" />
    <glyph glyph-name="m" unicode="m" horiz-adv-x="1121" 
d="M424 538h33q57 0 106 -319h-4q175 272 249 303q75 0 106 -187t50 -207t35.5 -20t191.5 288q0 -49 18 -49q-111 -377 -293 -377l-44 26q-76 103 -100 314l-15 9q-61 -43 -183 -317h-63q-42 0 -106 351h-2q-31 0 -97 -330l-63 -37q-59 0 -124 335h-21q-87 -166 -87 -207
q-67 0 -67 44q10 146 195 332h23q90 -69 90 -111h42q3 0 130 159z" />
    <glyph glyph-name="n" unicode="n" horiz-adv-x="666" 
d="M375 586h60q42 -70 77 -504h28q151 288 213 338v-53q-134 -395 -265 -395h-27q-82 42 -82 349v60q0 52 -25 59v0q-33 -117 -70 -389l-68 -69q-53 18 -53 87v156q0 59 -33 179h-16q-84 -264 -118 -264h-25v25q0 201 151 373h42q21 0 91 -108h7q19 75 113 156z" />
    <glyph glyph-name="o" unicode="o" horiz-adv-x="386" 
d="M195 570q147 0 147 -270v-44q0 -243 -195 -281q-157 24 -170 260v76q18 216 218 259zM101 321.5q-4 -50.5 3 -129.5t59 -105h4q78 63 76 287q0 73 -37 84h-22q-41 2 -60 -42t-23 -94.5z" />
    <glyph glyph-name="p" unicode="p" horiz-adv-x="639" 
d="M326 600q219 0 265 -288q0 -209 -327 -311q-17 -51 -118 -51h-22q11 -130 11 -299q8 -378 24 -636q-12 -333 -96 -362q-86 21 -86 103t48 201q-24 861 -24 1221q-12 149 -12 157q0 115 298 265h39zM123 311v-175q50 -64 107 -64q215 0 251 252q0 129 -203 166
q-155 -34 -155 -179z" />
    <glyph glyph-name="q" unicode="q" horiz-adv-x="479" 
d="M223 567q11 0 78 -37q71 97 108 48q-28 -537 -31 -645.5t-3 -159.5q-7 -600 60 -1021q-11 -44 -49 -73q-89 0 -89 205l-14 169q-23 564 -17.5 659.5t16.5 390.5q5 0 -141 -180q-56 -33 -91 -33h-20q-45 0 -74 154q51 505 267 523zM96 27q92 -28 182 357l-6 54
q-30 34 -59 25.5t-85.5 -114t-55.5 -208t24 -114.5z" />
    <glyph glyph-name="r" unicode="r" horiz-adv-x="755" 
d="M105 668h61q0 -112 143 -246q97 -354 262 -354q45 18 219 199q0 -31 12 -31q0 -111 -248 -265l-63 -13q-154 0 -277 379q-49 65 -89 65q-118 -233 -175 -287l-9 65q103 224 103 294l-12 86q36 108 73 108z" />
    <glyph glyph-name="s" unicode="s" horiz-adv-x="509" 
d="M367 814q23 -12 46 -12v-37q0 -10 -84 -124v-7q10 -62 128 -420v-39q-41 -204 -207 -204q-58 14 -133 106q30 88 63 88h31q47 -72 89 -72h12q10 0 22 21t2 78.5t-103 295.5h-3q-10 0 -260 -384q0 -13 -109 -95h-41v29q27 39 229 345l159 232q73 199 159 199z" />
    <glyph glyph-name="t" unicode="t" horiz-adv-x="397" 
d="M82 1443q29 -15 53 -15q0 -183 -5 -279.5t-1.5 -179.5t7.5 -154t17 -71q221 12 376 12q23 -12 47 -12q0 -73 -422 -101l-10 -71v-35q0 -453 69 -453h12q3 0 35 30.5t75.5 92.5t45 6t-26.5 -111q-79 -132 -165 -132q-147 0 -147 327q-4 104 -8 172.5t-4 171.5l-129 -11
l-59 8l-36 18q9 75 224 99q1 72 -3.5 176t-5 172t-0.5 176.5t61 163.5z" />
    <glyph glyph-name="u" unicode="u" horiz-adv-x="562" 
d="M373 -21q-93 65 -93 132h7q-96 -111 -122.5 -125.5t-63.5 -14.5q-121 40 -121 297v180q0 64 71 110q52 -16 63 -60q0 -38 -21 -167q1 -108 10 -175t18 -67q147 110 147 336q27 144 73 144h34l15 -60l-12 -192l13 -51q-13 -24 -13 -34q11 -143 35 -143h-11v24
q24 -23 21 -23q26 5 63 46q23 37 55 110q62 -3 37 -72q-64 -195 -162 -195h-43z" />
    <glyph glyph-name="v" unicode="v" horiz-adv-x="441" 
d="M338 691h44l15 -60q-54 -539 -100 -636l-74 -15q-178 190 -285 494q23 61 50 61h32q189 -360 208 -360h1q58 340 109 516z" />
    <glyph glyph-name="w" unicode="w" horiz-adv-x="649" 
d="M574 487.5q20 -111.5 -14 -309t-133.5 -194t-126.5 173.5q-95 -223 -191 -186q-85 80 -128 498q30 58 57 57l25 -3q37 -4 45.5 -144.5t28.5 -217.5t74 54t83.5 174t53.5 -20t46.5 -165.5t49.5 -85t42.5 138.5t-21.5 192.5t-18.5 114t63 38.5t64.5 -115.5z" />
    <glyph glyph-name="x" unicode="x" horiz-adv-x="753" 
d="M537 655h42q36 -6 36 -43q-224 -172 -239 -244q169 -277 402 -277l17 -34v-36l-107 -40q-143 0 -403 252q-13 0 -346 -381l-58 -38v53q336 391 336 446q-113 137 -156 193v40q0 27 59 49q29 0 193 -173q91 124 224 233zM-117 -164v-49q-12 -23 -12 -46h-50v37q0 25 62 58
z" />
    <glyph glyph-name="y" unicode="y" horiz-adv-x="670" 
d="M384 569h19q58 -29 58 -85q-12 -180 -12 -251h6q212 203 287 254l80 -15q-84 -53 -316 -308q-57 -81 -57 -135q-12 -271 -5.5 -350t-2.5 -174q-19 -688 -262 -844q-69 -50 -176 -50q-198 20 -228 348v85q0 286 375 824q165 179 165 232v50l-15 3q-52 -139 -185 -198h-15
q-121 0 -121 493v12q0 85 80 85l30 -45q8 -411 59 -411h6q185 206 185 450zM-139 -1022q18 -269 179 -269q300 3 287 965q-12 98 -12 162v60q0 11 -5 11q-410 -474 -449 -852v-77z" />
    <glyph glyph-name="z" unicode="z" horiz-adv-x="547" 
d="M95 516q133 -34 288 -23l75 -15v-54l-317 -317q0 -11 8 -11q247 -4 417 14l8 -32q0 -51 -245 -91l-76 13q-71 0 -200 -13q-43 0 -78 76q27 53 171 180t140 136q-255 32 -255 99v25q19 0 64 13z" />
    <glyph glyph-name="asciitilde" unicode="~" horiz-adv-x="1391" 
d="M1194 996h70l14 -72v-73q0 -254 -360 -313q-151 0 -422 263q-68 46 -165 10q-133 -78 -133 -256l-34 -17h-15q-25 0 -49 46q0 276 347 367q94 -2 229.5 -138.5t197 -152.5t124.5 0q155 31 196 336z" />
    <glyph glyph-name="cent" unicode="&#xa2;" horiz-adv-x="911" 
d="M536 1195h31l31 -38q-56 -266 -60 -372l67 -11q136 2 218 -119l-35 -57q-121 81 -242 62q-40 0 -53 -499q5 -35 11 -35h80q94 0 255 50l17 -38q-93 -70 -359 -112l-4 -10q-19 -255 25 -518l-27 -15h-36q-78 276 -75 546q0 9 -61.5 21t-143.5 85.5t-82 195.5
q0 237 201 384l125 56l8 20q46 404 109 404zM240.5 227.5q48.5 -78.5 136.5 -81.5q11 24 11 71q0 7 -8 27q16 101 30 385l-40 -9q-137 -56 -157.5 -185t28 -207.5z" />
    <glyph glyph-name="Euro" unicode="&#x20ac;" horiz-adv-x="1265" 
d="M1082.5 1527.5q2.5 -43.5 -103 -17t-212.5 -33t-168.5 -195t-68.5 -343.5q459 1 474 -41t-138.5 -43.5t-248.5 -5t-98 -66t-2 -158.5q298 6 364 6q46 0 70 -40q5 -56 -99.5 -59t-324.5 -4q13 -309 214 -393.5t425 89.5l32 24q0 -32 10 -50q10 -141 -323 -199h-89
q-319 24 -389 527h-14q-79 -8 -280 -14q-27 14 -27 26l-5 62q-3 21 320 18q-14 95 5 210h-35q-287 -10 -287 -3q-11 8 -21 8q-4 82 70 84t278 18q24 359 191.5 518t322.5 138.5t157.5 -64z" />
    <glyph glyph-name="sterling" unicode="&#xa3;" horiz-adv-x="1275" 
d="M717 1612q150 0 260 -227l2 -12q-12 -27 -12 -38h-60q-133 163 -234 163h-66q-168 -85 -166 -684l43 -29h53q139 0 197 -14q100 14 222 14h90l26 -11q3 -57 -540 -103h-41q-71 -134 -48 -483q590 -81 664 -81q42 0 41 13l63 -13h157l23 12l14 -21q-76 -91 -356 -91
q-126 0 -581 67h-26q-77 0 -217 -107q-32 3 -64 62l131 161l36 259l-12 178q-17 44 -84 44h-144q-46 0 -78 37q25 77 109 77h170q36 0 33 342q98 431 218 431q5 33 177 54z" />
    <glyph glyph-name="yen" unicode="&#xa5;" horiz-adv-x="1316" 
d="M1267 1604v-45q-108 -180 -509 -758q5 0 5 -11l69 10l76 -11q4 0 41 12q44 -12 70 -12v13q49 -14 76 -53q0 -92 -366 -92l-9 -20v-81q0 -19 25 -19l65 13q60 -13 85 -13l54 12q44 -12 70 -12v14q49 -14 76 -54q0 -92 -364 -92q0 -11 -10 -11q10 -101 10 -126
q-11 -174 -11 -186h12q-12 -74 -59 -108q-65 0 -72 126v239q0 58 -27 66h-246q-84 0 -91 42v13q0 41 273 65h76q15 0 15 19v84q0 13 -28 29h-234q-85 0 -92 42q0 59 263 78h26v15q-469 524 -536 722q17 54 39 54h10q14 0 412 -542l159 -141h19q57 0 252 309q114 136 302 410
h74z" />
    <glyph glyph-name="copyright" unicode="&#xa9;" horiz-adv-x="1889" 
d="M1366.5 1442.5q146.5 -109.5 224.5 -334t25.5 -492.5t-234.5 -438t-396.5 -185t-374.5 63t-258.5 223.5t-105.5 436t125.5 494t311.5 286t357.5 69.5t325 -122.5zM709 114.5q124 -46.5 264 -41t304.5 123t232 416.5t-43.5 552t-380 302.5t-484 -149t-228 -519.5
t99 -479.5t236 -205zM1221 1105q51 -85 -3 -108t-87.5 32t-85.5 75t-139 -4.5t-150.5 -164t-48.5 -273t77 -186.5t155.5 -53t168 54t134.5 144.5t90.5 73t-32.5 -126t-158 -181t-223 -75t-212 70.5t-115 173t-13 237.5t100.5 254t192 150.5t204 13t145.5 -106z" />
    <glyph glyph-name="registered" unicode="&#xae;" horiz-adv-x="1148" 
d="M649.5 1651q78.5 -29 136.5 -119.5t59 -227.5t-72.5 -236.5t-194.5 -134.5t-243 25t-157 192t1.5 256t120.5 188t177.5 75t172 -18zM537.5 981.5q98.5 18.5 166.5 97.5t74 218.5t-62.5 229.5t-209.5 85t-220 -125t-57 -268.5t116 -202t192.5 -35zM496 1534q65 7 90 -29
q44 -46 9 -143q-42 -83 -87 -114q-1 0 -2 -22q0 -8 104 -24q49 3 52 -28.5t-70 -56.5q-65 7 -96 22.5t-50 18.5q-6 -1 -13 -71l-19 -14q-33 -3 -41.5 63.5t-5 181t42.5 135.5q-2 19 30 44t56 37zM458 1292v-1q18 2 28.5 11t34 50.5t20.5 69.5t-37 26q-35 -6 -46.5 -32
t0.5 -124z" />
    <glyph glyph-name="trademark" unicode="&#x2122;" horiz-adv-x="875" 
d="M838.5 1698.5q19.5 -3.5 35.5 -35.5q-4 -45 -7 -160t-15 -160t-46.5 -49.5t-21 136.5t12.5 145.5t1.5 4.5t-41.5 -67t-68 -67.5t-59 62.5t-31 63t4 -72q0 -74 -1 -172q-12 -30 -43 -31.5t-31.5 78t7.5 219.5q-2 25 -5 25q-103 -3 -102 -21q-12 -123 -10.5 -215t-41 -93.5
t-37 49.5t7.5 150.5t0.5 108t-32 7t-64 -11.5t-42.5 3t3.5 43t369.5 40q19 0 39 -32.5t45 -84t26 -51.5t45.5 83t63 96t38 9.5z" />
    <glyph glyph-name="brokenbar" unicode="&#xa6;" horiz-adv-x="413" 
d="M169 1151.5q-5 331.5 20 610.5q113 175 100 -350q1 -372 0 -486t-58 -110t-62 335.5zM181.5 -386.5q-8.5 79.5 -13 316.5t20.5 485q129 171 104 -327q1 -192 -7.5 -372t-52 -181t-52 78.5z" />
    <glyph glyph-name="section" unicode="&#xa7;" horiz-adv-x="1050" 
d="M547 1587q204 -30 328 -239l-4 -31q-23 -44 -97 -33q-109 163 -260 176.5t-250 -65.5l-13 -78q-12 -82 574 -342q165 -160 148 -277q-17 -141 -188 -201q196 -153 173 -296q-22 -174 -268 -218t-408.5 6t-205.5 217l3 13q10 70 85 97l42 -6l32 -23l-24 -65l-2 -23
q-5 -31 76 -77t296 -36t227 122q-42 204 -269 238q-560 150 -522 396q21 139 289 231l1 4q1 5 -170 138q-35 112 -31 136q30 196 438 236zM334 975q-162 -23 -183 -153q-22 -145 470 -263q193 32 202 115l11 82q11 75 -297 212q-178 4 -203 7z" />
    <glyph glyph-name="paragraph" unicode="&#xb6;" horiz-adv-x="1354" 
d="M1288 1593q40 -2 21.5 -53t-48.5 -67t-151 -17q-12 -885 -8 -1370q5 -139 -53.5 -146.5t-59 76.5t-1.5 331.5t16 1103.5l-67 -1l-5 -319l-19 -678q-2 -498 -32.5 -514.5t-56 -2.5t-27.5 232t1 663q-311 -22 -488.5 62t-181.5 269t112 283.5t278.5 126.5t332 26
t283.5 -2.5t154 -2.5z" />
    <glyph glyph-name="periodcentered" unicode="&#xb7;" horiz-adv-x="789" 
 />
    <glyph glyph-name="periodcentered" unicode="&#x2219;" horiz-adv-x="789" 
 />
    <glyph glyph-name="uni00B9" unicode="&#xb9;" horiz-adv-x="290" 
d="M271 1981q33 -18 33 -55q-16 -137 -21.5 -236t1.5 -160q5 -50 -7.5 -77.5t-55 -23.5t-48 73t-3.5 115.5t16 142.5q0 18 -4 -6l27 32q-22 -34 -44.5 -71.5t-68.5 -92t-90 -54.5v27q85 130 100 166q66 115 103 213z" />
    <glyph glyph-name="ordmasculine" unicode="&#xba;" horiz-adv-x="346" 
d="M284.5 1941q74.5 -58 61 -249.5t-95.5 -237t-151 6t-83 164.5t19.5 200t104 130.5t145 -14.5zM120 1669q-1 -109 25.5 -132.5t49.5 -10t42 78t13.5 158.5t-40 105t-62.5 -41t-28 -158z" />
    <glyph glyph-name="uni00B2" unicode="&#xb2;" horiz-adv-x="391" 
d="M343 1847q-16 -147 -213 -323q168 -17 315 39q11 -118 -217.5 -120.5t-234.5 11t1.5 45t101 120.5t119.5 149t-12 88t-116 -82l-16 2q-31 0 -31 36l1 13q44 119 161 144.5t141 -122.5z" />
    <glyph glyph-name="uni00B3" unicode="&#xb3;" horiz-adv-x="282" 
d="M205 1827q20 34 -14 52.5t-106 -57.5h-14q-31 0 -31 30l2 10q42 85 150.5 102t132.5 -88q-12 -71 -89 -140q13 -5 34 -30q43 -51 35.5 -115.5t-68 -118t-161.5 -46.5q-38 2 -51 21q-2 1 -18 14l-3 3q-9 11 -8 28q-9 37 47 41q37 -37 75 -36.5t68.5 35.5t26.5 78.5
t-33.5 50.5t-68 -16.5t-83.5 34.5q56 26 107 70t70 78z" />
    <glyph glyph-name="guillemotleft" unicode="&#xab;" horiz-adv-x="1137" 
 />
    <glyph glyph-name="guillemotright" unicode="&#xbb;" horiz-adv-x="775" 
 />
    <glyph glyph-name="onequarter" unicode="&#xbc;" horiz-adv-x="1610" 
d="M477 2038q60 -34 60 -99q-28 -308 -37 -668l9 -74l-9 -51q9 -89 9 -161l-45 -38q-68 0 -83 313q19 147 28 339q-9 53 -9 111h4q-10 0 -147 -231q-183 -253 -255 -253v38q222 276 222 309q155 260 224 448zM1373 1105q102 -23 98 -62l-1 -22q-70 -43 -80 -145l-5 -54
q-8 -131 -10 -153l-12 -42q11 -39 11 -41q314 10 362 4l-5 -36q-4 -39 -354 -58q-14 -7 -15 -16q-30 -282 33 -503l-33 -39q-116 12 -109 553l-3 2q-153 -27 -369 -35q-78 8 -95 107q38 131 392 396q159 114 179 146zM892 578l-2 -17q0 -1 7 -2q362 2 365 24l2 22
q12 114 26 316q9 12 10 17l-5 3q-49 6 -371 -299q-29 -25 -32 -64zM1295 2022l23 -6q25 -18 17 -59q-371 -753 -743 -1475l-247 -494l-79 -9q75 248 759 1639q201 424 270 404z" />
    <glyph glyph-name="onehalf" unicode="&#xbd;" horiz-adv-x="1787" 
d="M1354 1012q122 -61 122 -218q-44 -232 -160 -363q-71 -106 -239 -261v-7q45 -73 360 -92l18 10l19 -10q7 0 378 44q0 -92 -474 -138q-137 0 -438 92q-139 -98 -275 -109q-56 0 -93 89q85 174 250 174l168 -33q83 67 150 165q232 206 232 472q-21 82 -42 82
q-87 0 -248 -240q-21 -34 -21 -65h-28q-32 0 -37 46q0 96 231 299q45 39 127 63zM677 70v-28q1 -5 2 -5q176 35 176 73l-15 11h-74q-46 0 -89 -51zM477 2038q60 -34 60 -99q-28 -308 -37 -668l9 -74l-9 -51q9 -89 9 -161l-45 -38q-68 0 -83 313q19 147 28 339q-9 53 -9 111
h4q-10 0 -147 -231q-183 -253 -255 -253v38q222 276 222 309q155 260 224 448zM1338 2022l23 -6q25 -18 17 -59q-371 -753 -743 -1475l-247 -494l-79 -9q75 248 759 1639q201 424 270 404z" />
    <glyph glyph-name="threequarters" unicode="&#xbe;" horiz-adv-x="1676" 
d="M563 2059q117 0 136 -162q-39 -167 -172 -334v-5q188 -94 188 -243q0 -258 -436 -351q-83 -18 -150 -18q-226 0 -226 138q20 49 45 53h30q0 -95 151 -95q119 0 181 36q18 -10 22 -10q267 89 267 221q0 138 -110 162h-24q-82 0 -157 -78l-47 -9h-9q-29 0 -29 30v26
q0 26 200 176q160 186 160 310q-5 49 -12 49h-41q-35 0 -142 -104h-43q0 17 -13 17q36 111 212 191h19zM1469 1105q102 -23 98 -62l-1 -22q-70 -43 -80 -145l-5 -54q-8 -131 -10 -153l-12 -42q11 -39 11 -41q314 10 362 4l-5 -36q-4 -39 -354 -58q-14 -7 -15 -16
q-30 -282 33 -503l-33 -39q-116 12 -109 553l-3 2q-153 -27 -369 -35q-78 8 -95 107q38 131 392 396q159 114 179 146zM988 578l-2 -17q0 -1 7 -2q362 2 365 24l2 22q12 114 26 316q9 12 10 17l-5 3q-49 6 -371 -299q-29 -25 -32 -64zM1366 2022l23 -6q25 -18 17 -59
q-371 -753 -743 -1475l-247 -494l-79 -9q75 248 759 1639q201 424 270 404z" />
    <glyph glyph-name="currency" unicode="&#xa4;" horiz-adv-x="807" 
d="M317 653.5q10 -84.5 53 -109.5t80.5 -11.5t64.5 79.5t10.5 148t-78 87t-101 -52t-29.5 -141.5zM550 921q22 21 53 50q109 102 124 48t-64 -144q-20 -23 -35 -40q15 -32 17 -128t-26 -145q5 -14 52.5 -73t8.5 -95.5t-121 69.5q-15 14 -19 18q-41 -43 -118 -44.5t-127 35.5
q-20 -22 -48 -52q-98 -105 -124 -48.5t54 147.5q20 23 37 43q-19 36 -26 97q0 120 45 180v-7l-20 26q-97 84 -57 131.5t136 -47.5q16 -18 24 -26q10 6 32 16q87 39 185 -2q13 -6 17 -9z" />
    <glyph glyph-name="multiply" unicode="&#xd7;" horiz-adv-x="803" 
d="M522 708q46 -67 115 -153q85 -104 45.5 -151t-128.5 43t-149 139q-74 -75 -165 -173t-117 -41.5t54 147.5q67 76 141 167q-47 66 -116 153q-85 104 -45 151t129 -43t148 -139q75 75 176.5 170t116.5 41t-64 -144q-69 -76 -141 -167z" />
    <glyph glyph-name="ellipsis" unicode="&#x2026;" 
d="M670 86q0 -12 -15.5 -24t-33.5 -19t-37.5 -9.5t-30.5 9.5q-6 9 -10.5 26t-6.5 35t-2 33q0 19 6 28q6 8 20 17.5t30 16t33.5 11t25.5 -7.5q8 -7 11.5 -24.5t5.5 -34.5t3 -34t1 -23zM1048 78q0 -13 -16 -24t-33.5 -17.5t-37 -9t-30.5 9.5q-6 8 -11 25t-7 35.5t-2 33.5
q0 17 6 28q7 9 20.5 18t30.5 15.5t33.5 9t23.5 -7.5q9 -6 13 -23t6 -35t3 -35t1 -23zM258 86q0 -12 -15 -24t-32.5 -19t-35 -9.5t-30.5 8.5q-6 10 -10.5 27t-6.5 35t-2 33q0 19 6 28q6 8 20 17t29 16t32.5 11t29.5 -7q6 -9 8.5 -25.5t4.5 -33.5t2 -34v-23z" />
    <glyph glyph-name="Ahuyen" unicode="&#xc0;" 
d="M663 1807h15q49 0 81 -493q149 -607 246 -840q19 0 64 -210q13 0 54 -159q0 -88 -43 -88q-69 0 -186 345q-503 -1 -686 -79l-34 38v27q-9 90 667 138v-2q-126 535 -187 648l-30 31l15 28q-38 251 -38 307h-1q-126 41 -447 -1114q-39 -166 -39 -195q0 -59 25 -147
q-74 -248 -111 -248q-84 0 -80 76q129 938 530 1721q157 208 185 216zM535 2234q272 -174 492 -282v-57h-26q-184 15 -501 220l-27 41v28q0 27 62 50z" />
    <glyph glyph-name="Asac" unicode="&#xc1;" 
d="M663 1807h15q49 0 81 -493q149 -607 246 -840q19 0 64 -210q13 0 54 -159q0 -88 -43 -88q-69 0 -186 345q-503 -1 -686 -79l-34 38v27q-9 90 667 138v-2q-126 535 -187 648l-30 31l15 28q-38 251 -38 307h-1q-126 41 -447 -1114q-39 -166 -39 -195q0 -59 25 -147
q-74 -248 -111 -248q-84 0 -80 76q129 938 530 1721q157 208 185 216zM1024 2395v-77q-293 -405 -422 -405v30q114 114 354 452h68z" />
    <glyph glyph-name="Anga" unicode="&#xc3;" 
d="M663 1807h15q49 0 81 -493q149 -607 246 -840q19 0 64 -210q13 0 54 -159q0 -88 -43 -88q-69 0 -186 345q-503 -1 -686 -79l-34 38v27q-9 90 667 138v-2q-126 535 -187 648l-30 31l15 28q-38 251 -38 307h-1q-126 41 -447 -1114q-39 -166 -39 -195q0 -59 25 -147
q-74 -248 -111 -248q-84 0 -80 76q129 938 530 1721q157 208 185 216zM1086 2315q37 -5 37 -33q0 -219 -271 -344h-53q-137 87 -161 87q-13 0 -85 -114q-45 -22 -76 -22l-17 28v26q65 206 214 206q45 0 168 -78h41q123 49 167 184q0 60 36 60z" />
    <glyph glyph-name="AA" unicode="&#xc2;" 
d="M663 1807h15q49 0 81 -493q149 -607 246 -840q19 0 64 -210q13 0 54 -159q0 -88 -43 -88q-69 0 -186 345q-503 -1 -686 -79l-34 38v27q-9 90 667 138v-2q-126 535 -187 648l-30 31l15 28q-38 251 -38 307h-1q-126 41 -447 -1114q-39 -166 -39 -195q0 -59 25 -147
q-74 -248 -111 -248q-84 0 -80 76q129 938 530 1721q157 208 185 216zM689 2137q80 -1 93.5 -43.5t36 -75t62 -85t94.5 -119.5l-26 -65q-94 41 -144 99t-77.5 110.5t-54.5 36t-261 -256.5q-55 -55 -149 -163h-41v24q0 125 467 538z" />
    <glyph glyph-name="Ehuyen" unicode="&#xc8;" horiz-adv-x="1061" 
d="M213 1489v-526q2 -11 10 -11h11q407 83 683 103q22 -11 45 -11v-32q-70 -45 -621 -152q-140 -33 -140 -105q35 -538 35 -700q7 -45 22 -45h11q437 69 715 69q158 -11 16 -72l-824 -138q-71 11 -71 47q0 56 12 73q-36 416 -36 753q-23 74 -23 109q23 37 23 65
q0 164 12 344q0 6 -12 150q10 90 12 184h3q1 13 1 35l-12 23q0 168 754 222h81l69 -13v-56q-145 -37 -637 -95q-138 -42 -138 -55v-166h-1zM271 2342q32 0 356 -190q152 -51 152 -90v-35h-26q-183 14 -500 203l-28 39v27q0 24 46 46z" />
    <glyph glyph-name="Esac" unicode="&#xc9;" horiz-adv-x="1061" 
d="M213 1489v-526q2 -11 10 -11h11q407 83 683 103q22 -11 45 -11v-32q-70 -45 -621 -152q-140 -33 -140 -105q35 -538 35 -700q7 -45 22 -45h11q437 69 715 69q158 -11 16 -72l-824 -138q-71 11 -71 47q0 56 12 73q-36 416 -36 753q-23 74 -23 109q23 37 23 65
q0 164 12 344q0 6 -12 150q10 90 12 184h3q1 13 1 35l-12 23q0 168 754 222h81l69 -13v-56q-145 -37 -637 -95q-138 -42 -138 -55v-166h-1zM844 2417q30 -14 53 -14v-35q0 -121 -392 -433h-42v41q74 67 381 441z" />
    <glyph glyph-name="" unicode="&#xca;" horiz-adv-x="1061" 
d="M213 1489v-526q2 -11 10 -11h11q407 83 683 103q22 -11 45 -11v-32q-70 -45 -621 -152q-140 -33 -140 -105q35 -538 35 -700q7 -45 22 -45h11q437 69 715 69q158 -11 16 -72l-824 -138q-71 11 -71 47q0 56 12 73q-36 416 -36 753q-23 74 -23 109q23 37 23 65
q0 164 12 344q0 6 -12 150q10 90 12 184h3q1 13 1 35l-12 23q0 168 754 222h81l69 -13v-56q-145 -37 -637 -95q-138 -42 -138 -55v-166h-1zM645 2372q106 21 191 -185q38 -42 97 -146l-39 -20q-95 12 -232 245l-25 -8q-26 -1 -392 -415l-48 -1v48q17 78 433 482h15z" />
    <glyph glyph-name="Ohuyen" unicode="&#xd2;" horiz-adv-x="879" 
d="M487 1855q278 0 328 -429q13 -149 14 -347q-60 -1069 -412 -1092q-256 9 -373 514q-39 226 -25 466.5t128 564.5q176 308 340 323zM134 883q21 -632 286 -756h56q243 176 236 1094q0 43 -10 125q-44 413 -214 407h-36q-184 -59 -294 -574q-17 -116 -24 -296zM425 2275
q32 2 369 -182q154 -45 157 -86l3 -37l-26 -2q-184 4 -514 188l-30 39l-2 28q-1 26 43 52z" />
    <glyph glyph-name="Osac" unicode="&#xd3;" horiz-adv-x="879" 
d="M487 1855q278 0 328 -429q13 -149 14 -347q-60 -1069 -412 -1092q-256 9 -373 514q-39 226 -25 466.5t128 564.5q176 308 340 323zM134 883q21 -632 286 -756h56q243 176 236 1094q0 43 -10 125q-44 413 -214 407h-36q-184 -59 -294 -574q-17 -116 -24 -296zM815 2504
q30 -15 52 -13l2 -37q6 -131 -369 -488l-41 -2l-2 43q76 83 358 497z" />
    <glyph glyph-name="Onga" unicode="&#xd5;" horiz-adv-x="879" 
d="M487 1855q278 0 328 -429q13 -149 14 -347q-60 -1069 -412 -1092q-256 9 -373 514q-39 226 -25 466.5t128 564.5q176 308 340 323zM134 883q21 -632 286 -756h56q243 176 236 1094q0 43 -10 125q-44 413 -214 407h-36q-184 -59 -294 -574q-17 -116 -24 -296zM1016 2394
q36 -5 36 -33q0 -219 -270 -344h-54q-137 87 -161 87q-13 0 -85 -114q-45 -22 -75 -22l-18 28v26q66 206 214 206q46 0 169 -78h41q123 49 166 184q0 60 37 60z" />
    <glyph glyph-name="" unicode="&#xd4;" horiz-adv-x="879" 
d="M487 1855q278 0 328 -429q13 -149 14 -347q-60 -1069 -412 -1092q-256 9 -373 514q-39 226 -25 466.5t128 564.5q176 308 340 323zM134 883q21 -632 286 -756h56q243 176 236 1094q0 43 -10 125q-44 413 -214 407h-36q-184 -59 -294 -574q-17 -116 -24 -296zM525 2285
q130 9 216 -180q27 -5 115 -151l-38 -23q-103 5 -268 245l-29 -2q-26 -3 -391 -487l-43 -2l-4 50q13 84 425 549z" />
    <glyph glyph-name="Ihuyen" unicode="&#xcc;" horiz-adv-x="463" 
d="M191 2286q108 -47 138 -47v-46q0 -95 -101 -125q-52 0 -93 77v81q0 17 56 60zM254 1829l19 -36q-26 -125 -26 -140v-50q0 -132 -12 -388h20l-21 -41v-22q0 -24 15 -50q-15 -27 -15 -38q0 -24 14 -48l-14 -65q63 -869 63 -946l-35 -18q-91 0 -91 150q-54 507 -58.5 679.5
t-4.5 315t25 667.5q56 30 121 30zM288 2659q32 0 453 -222q76 -6 157 -74v-25q0 -33 -36 -33q-256 36 -616 235q-8 35 -31 35q25 63 73 84z" />
    <glyph glyph-name="Isac" unicode="&#xcd;" horiz-adv-x="463" 
d="M221 2246q108 -47 138 -47v-46q0 -95 -101 -125q-52 0 -93 77v81q0 17 56 60zM254 1829l19 -36q-26 -125 -26 -140v-50q0 -132 -12 -388h20l-21 -41v-22q0 -24 15 -50q-15 -27 -15 -38q0 -24 14 -48l-14 -65q63 -869 63 -946l-35 -18q-91 0 -91 150q-54 507 -58.5 679.5
t-4.5 315t25 667.5q56 30 121 30zM820 2692h15q34 -5 34 -35v-47q-145 -243 -408 -427l-22 44q144 142 343 439z" />
    <glyph glyph-name="Inga" unicode="&#x128;" horiz-adv-x="463" 
d="M191 2286q108 -47 138 -47v-46q0 -95 -101 -125q-52 0 -93 77v81q0 17 56 60zM254 1829l19 -36q-26 -125 -26 -140v-50q0 -132 -12 -388h20l-21 -41v-22q0 -24 15 -50q-15 -27 -15 -38q0 -24 14 -48l-14 -65q63 -869 63 -946l-35 -18q-91 0 -91 150q-54 507 -58.5 679.5
t-4.5 315t25 667.5q56 30 121 30zM1030 2671q36 -5 36 -33q0 -219 -270 -344h-54q-137 87 -161 87q-13 0 -85 -114q-45 -22 -75 -22l-18 28v26q65 206 214 206q46 0 169 -78h41q123 49 166 184q0 60 37 60z" />
    <glyph glyph-name="Uhuyen" unicode="&#xd9;" horiz-adv-x="1501" 
d="M715 2340q413 -120 888 -206v-46l-72 -14q-239 0 -938 183v22q0 39 122 61zM385 1702q128 0 128 -820v-103q0 -51 13 -102q-13 -52 -13 -103v-397q0 -205 67 -244h5q124 126 325 952q61 215 104 773l46 31h30q40 0 51 -76q0 -107 -38 -309q0 -189 -13 -358
q0 -820 217 -820q79 14 245 269q25 -48 25 -67q-147 -318 -323 -318q-280 101 -280 691l-9 52q-11 -11 -144 -529q-120 -387 -242 -432h-40q-105 0 -154 384q12 450 12 616q0 769 -56 769q-251 -455 -251 -1030l-54 -56q-36 70 -36 112q0 482 258 1007q84 108 127 108z" />
    <glyph glyph-name="Usac" unicode="&#xda;" horiz-adv-x="1498" 
d="M1246 2625q23 -15 46 -17l-3 -38q-47 -210 -473 -614l-66 5q178 226 437 656q13 -2 59 8zM385 1702q128 0 128 -820v-103q0 -51 13 -102q-13 -52 -13 -103v-397q0 -205 67 -244h5q124 126 325 952q61 215 104 773l46 31h30q40 0 51 -76q0 -107 -38 -309q0 -189 -13 -358
q0 -820 217 -820q79 14 245 269q25 -48 25 -67q-147 -318 -323 -318q-280 101 -280 691l-9 52q-11 -11 -144 -529q-120 -387 -242 -432h-40q-105 0 -154 384q12 450 12 616q0 769 -56 769q-251 -455 -251 -1030l-54 -56q-36 70 -36 112q0 482 258 1007q84 108 127 108z" />
    <glyph glyph-name="Ysac" unicode="&#xdd;" horiz-adv-x="1110" 
d="M1304 1843h52l16 -62q0 -24 -921 -1619q-75 -151 -75 -184l-75 1l-14 77q99 252 423 809v1q-269 126 -551 470q-210 262 -254 415q14 27 14 50l65 -1q25 -3 234 -321q398 -478 531 -479h21q64 40 247 408q171 334 287 435zM1143 2642h40q36 -6 36 -37v-12
q0 -181 -439 -661q-43 0 -43 29q138 202 375 666z" />
    <glyph glyph-name="ahuyen" unicode="&#xe0;" horiz-adv-x="551" 
d="M400 570q20 -38 20 -55q0 -45 -26 -211q0 -24 37 -170h13q27 15 151 234h24l40 -20q-127 -288 -234 -357h-33q-66 16 -99 170h3q-154 -236 -242 -236q-79 0 -84 164l5 112q59 340 339 340zM80 137q-2 -72 8 -94h12q154 159 176 289q0 78 -78 78q-65 0 -118 -273z
M128 1025q30 0 339 -195q145 -49 145 -111l-33 -17q-187 26 -469 210l-27 39v26q0 25 45 48z" />
    <glyph glyph-name="asac" unicode="&#xe1;" horiz-adv-x="551" 
d="M400 570q20 -38 20 -55q0 -45 -26 -211q0 -24 37 -170h13q27 15 151 234h24l40 -20q-127 -288 -234 -357h-33q-66 16 -99 170h3q-154 -236 -242 -236q-79 0 -84 164l5 112q59 340 339 340zM80 137q-2 -72 8 -94h12q154 159 176 289q0 78 -78 78q-65 0 -118 -273z
M588 1197q5 -33 37 -33q-162 -336 -471 -489q155 172 389 499z" />
    <glyph glyph-name="anga" unicode="&#xe3;" horiz-adv-x="551" 
d="M400 570q20 -38 20 -55q0 -45 -26 -211q0 -24 37 -170h13q27 15 151 234h24l40 -20q-127 -288 -234 -357h-33q-66 16 -99 170h3q-154 -236 -242 -236q-79 0 -84 164l5 112q59 340 339 340zM80 137q-2 -72 8 -94h12q154 159 176 289q0 78 -78 78q-65 0 -118 -273z
M704 1097q33 -5 33 -31q0 -197 -243 -310h-50q-123 78 -144 78q-11 0 -75 -102q-41 -20 -69 -20l-17 26v24q60 186 193 186q42 0 152 -70h37q108 43 147 164q0 55 36 55z" />
    <glyph glyph-name="aa" unicode="&#xe2;" horiz-adv-x="551" 
d="M400 570q20 -38 20 -55q0 -45 -26 -211q0 -24 37 -170h13q27 15 151 234h24l40 -20q-127 -288 -234 -357h-33q-66 16 -99 170h3q-154 -236 -242 -236q-79 0 -84 164l5 112q59 340 339 340zM80 137q-2 -72 8 -94h12q154 159 176 289q0 78 -78 78q-65 0 -118 -273zM295 918
q77 -16 268 -200q-18 -53 -89 -53q-191 107 -192 107q-122 -162 -182 -202h-53v53q129 210 248 295z" />
    <glyph glyph-name="a(nang" unicode="&#x1eb7;" horiz-adv-x="551" 
d="M400 570q20 -38 20 -55q0 -45 -26 -211q0 -24 37 -170h13q27 15 151 234h24l40 -20q-127 -288 -234 -357h-33q-66 16 -99 170h3q-154 -236 -242 -236q-79 0 -84 164l5 112q59 340 339 340zM80 137q-2 -72 8 -94h12q154 159 176 289q0 78 -78 78q-65 0 -118 -273zM169 924
q29 -131 83.5 -156t111.5 7.5t146 140.5h32v-28q-47 -124 -138 -190t-184 -44q-131 48 -122 185q20 45 71 85zM232 -244h13q85 -8 85 -49q0 -58 -61 -99q-66 29 -74 61v51q6 36 37 36z" />
    <glyph glyph-name="Adieresis" unicode="&#xc4;" 
d="M663 1807h15q49 0 81 -493q149 -607 246 -840q19 0 64 -210q13 0 54 -159q0 -88 -43 -88q-69 0 -186 345q-503 -1 -686 -79l-34 38v27q-9 90 667 138v-2q-126 535 -187 648l-30 31l15 28q-38 251 -38 307h-1q-126 41 -447 -1114q-39 -166 -39 -195q0 -59 25 -147
q-74 -248 -111 -248q-84 0 -80 76q129 938 530 1721q157 208 185 216zM865 2059v-10q0 -58 -74 -95q-49 0 -92 114q19 51 66 78h44q56 -29 56 -87zM541 2012v-10q0 -37 -96 -59h-14q-83 49 -83 115q0 55 97 69q96 -35 96 -115z" />
    <glyph glyph-name="adieresis" unicode="&#xe4;" horiz-adv-x="551" 
d="M400 570q20 -38 20 -55q0 -45 -26 -211q0 -24 37 -170h13q27 15 151 234h24l40 -20q-127 -288 -234 -357h-33q-66 16 -99 170h3q-154 -236 -242 -236q-79 0 -84 164l5 112q59 340 339 340zM80 137q-2 -72 8 -94h12q154 159 176 289q0 78 -78 78q-65 0 -118 -273zM506 774
v-8q0 -50 -64 -82q-42 0 -78 97q16 44 57 67h36q49 -25 49 -74zM236 735v-8q0 -33 -81 -52h-11q-72 42 -72 98q0 47 83 59q81 -29 81 -97z" />
    <glyph glyph-name="Aring" unicode="&#xc5;" 
d="M663 1807h15q49 0 81 -493q149 -607 246 -840q19 0 64 -210q13 0 54 -159q0 -88 -43 -88q-69 0 -186 345q-503 -1 -686 -79l-34 38v27q-9 90 667 138v-2q-126 535 -187 648l-30 31l15 28q-38 251 -38 307h-1q-126 41 -447 -1114q-39 -166 -39 -195q0 -59 25 -147
q-74 -248 -111 -248q-84 0 -80 76q129 938 530 1721q157 208 185 216zM681.5 2160q59.5 -25 70.5 -108v-42q-19 -130 -148 -145q-117 18 -129 134q0 54 21.5 96.5t73.5 66t111.5 -1.5zM565 1990.5q9 -39.5 24 -51.5t34 -7t37.5 33.5t13.5 81t-38.5 56t-56.5 -34.5t-14 -77.5
z" />
    <glyph glyph-name="aring" unicode="&#xe5;" horiz-adv-x="551" 
d="M400 570q20 -38 20 -55q0 -45 -26 -211q0 -24 37 -170h13q27 15 151 234h24l40 -20q-127 -288 -234 -357h-33q-66 16 -99 170h3q-154 -236 -242 -236q-79 0 -84 164l5 112q59 340 339 340zM80 137q-2 -72 8 -94h12q154 159 176 289q0 78 -78 78q-65 0 -118 -273z
M334.5 861q49.5 -21 58.5 -90v-35q-16 -108 -123 -120q-98 15 -108 111q0 45 18.5 80.5t61.5 55t92.5 -1.5zM240.5 721.5q7.5 -31.5 18.5 -40.5t25.5 -5.5t29.5 26t10.5 64t-29.5 44t-43.5 -27t-11 -61z" />
    <glyph glyph-name="Aogonek" unicode="&#x104;" 
d="M663 1807h15q49 0 81 -493q149 -607 246 -840q19 0 64 -210q13 0 54 -159q0 -88 -43 -88q-69 0 -186 345q-503 -1 -686 -79l-34 38v27q-9 90 667 138v-2q-126 535 -187 648l-30 31l15 28q-38 251 -38 307h-1q-126 41 -447 -1114q-39 -166 -39 -195q0 -59 25 -147
q-74 -248 -111 -248q-84 0 -80 76q129 938 530 1721q157 208 185 216zM965 -79q8 132 151 188l23 -60q-89 -94 -65 -157.5t74.5 -75t137.5 27t43 -35.5q-130 -106 -251 -62.5t-113 175.5z" />
    <glyph glyph-name="Ccedilla" unicode="&#xc7;" horiz-adv-x="917" 
d="M572 1882q200 -14 272 -296l-1 -21l-46 -26l-36 3q-63 236 -250 248q-223 -63 -289 -298q-52 -96 -84 -433q-32 -849 391 -991q176 -36 409 217l25 -57q-218 -301 -483 -283q-240 74 -380 381q-109 315 -82 742l7 104q17 265 187 518q201 202 360 192zM383.5 -359.5
q-67.5 45.5 -41 82t70.5 -2.5t85 -30.5t52 46t-38.5 79t-48 98.5t80.5 76l127 -8q-113 -42 -116.5 -56.5t28.5 -42.5q95 -58 80.5 -147.5t-113.5 -114.5t-166.5 20.5z" />
    <glyph glyph-name="ccedilla" unicode="&#xe7;" horiz-adv-x="386" 
d="M179 616q71 0 118 -102q-10 -62 -64 -46q-32 64 -53 66q-69 -42 -82.5 -178.5t21 -201.5t83.5 -60q80 17 200 229l43 -49q-90 -179 -156 -237t-146 -58q-116 25 -153 141t-16.5 221t82 188t123.5 87zM41.5 -246.5q-54.5 36.5 -32 67t57.5 -0.5t65 -24.5t38.5 34t-30 59.5
t-37 78t64.5 62l115 -7q-101 -37 -103.5 -47t20.5 -30q77 -46 64 -117.5t-90.5 -91t-132 17z" />
    <glyph glyph-name="ehuyen" unicode="&#xe8;" horiz-adv-x="454" 
d="M178 1112q32 0 357 -205q151 -55 151 -96v-37h-26q-183 15 -500 220l-28 41v28q0 25 46 49zM202 656q119 0 123 -145q0 -185 -107 -350q13 -33 22 -33h36q80 0 181 157q24 -46 24 -65q-92 -226 -242 -226q-102 12 -142 12q0 -21 -104 -50l-18 36v21q60 47 60 88
q-48 155 -48 242q0 237 215 313zM97 343q0 -72 46 -114q84 88 84 268q-14 37 -23 37h-33q-74 -38 -74 -191z" />
    <glyph glyph-name="esac" unicode="&#xe9;" horiz-adv-x="454" 
d="M456 1187q5 -30 35 -30q-149 -308 -436 -451q145 162 358 460zM202 656q119 0 123 -145q0 -185 -107 -350q13 -33 22 -33h36q80 0 181 157q24 -46 24 -65q-92 -226 -242 -226q-102 12 -142 12q0 -21 -104 -50l-18 36v21q60 47 60 88q-48 155 -48 242q0 237 215 313z
M97 343q0 -72 46 -114q84 88 84 268q-14 37 -23 37h-33q-74 -38 -74 -191z" />
    <glyph glyph-name="" unicode="&#xea;" horiz-adv-x="454" 
d="M207 968q77 -15 270 -202q-18 -53 -90 -53q-192 108 -194 108q-122 -163 -183 -204h-16q-37 0 -37 40q94 189 250 311zM202 656q119 0 123 -145q0 -185 -107 -350q13 -33 22 -33h36q80 0 181 157q24 -46 24 -65q-92 -226 -242 -226q-102 12 -142 12q0 -21 -104 -50
l-18 36v21q60 47 60 88q-48 155 -48 242q0 237 215 313zM97 343q0 -72 46 -114q84 88 84 268q-14 37 -23 37h-33q-74 -38 -74 -191z" />
    <glyph glyph-name="uni0205" unicode="&#x205;" horiz-adv-x="454" 
d="M202 656q119 0 123 -145q0 -185 -106 -350q12 -33 21 -33h36q80 0 182 157q23 -46 23 -65q-92 -226 -241 -226q-102 12 -143 12q0 -21 -103 -50l-19 36v21q60 47 60 88q-48 155 -48 242q0 237 215 313zM97 343q0 -72 47 -114q83 88 83 268q-14 37 -23 37h-33
q-74 -38 -74 -191zM195 766l-2 -38l-37 2q-241 175 -236 283l2 32q21 -2 48 10q158 -221 225 -289zM443 766l-2 -38l-37 2q-241 175 -236 283l2 32q21 -2 48 10q158 -221 225 -289z" />
    <glyph glyph-name="Edieresis" unicode="&#xcb;" horiz-adv-x="1061" 
d="M213 1489v-526q2 -11 10 -11h11q407 83 683 103q22 -11 45 -11v-32q-70 -45 -621 -152q-140 -33 -140 -105q35 -538 35 -700q7 -45 22 -45h11q437 69 715 69q158 -11 16 -72l-824 -138q-71 11 -71 47q0 56 12 73q-36 416 -36 753q-23 74 -23 109q23 37 23 65
q0 164 12 344q0 6 -12 150q10 90 12 184h3q1 13 1 35l-12 23q0 168 754 222h81l69 -13v-56q-145 -37 -637 -95q-138 -42 -138 -55v-166h-1zM850 2170v-10q0 -58 -74 -95q-49 0 -92 114q20 51 67 78h43q56 -29 56 -87zM526 2123v-10q0 -37 -96 -59h-14q-83 49 -83 115
q0 55 97 69q96 -35 96 -115z" />
    <glyph glyph-name="edieresis" unicode="&#xeb;" horiz-adv-x="454" 
d="M202 656q119 0 123 -145q0 -185 -107 -350q13 -33 22 -33h36q80 0 181 157q24 -46 24 -65q-92 -226 -242 -226q-102 12 -142 12q0 -21 -104 -50l-18 36v21q60 47 60 88q-48 155 -48 242q0 237 215 313zM97 343q0 -72 46 -114q84 88 84 268q-14 37 -23 37h-33
q-74 -38 -74 -191zM441 906v-8q0 -50 -64 -82q-42 0 -78 97q16 44 57 67h36q49 -25 49 -74zM171 867v-8q0 -33 -81 -52h-12q-71 42 -71 98q0 47 83 59q81 -29 81 -97z" />
    <glyph glyph-name="Eth" unicode="&#xd0;" horiz-adv-x="1256" 
d="M400 1892q183 -7 478 -299q362 -410 349 -789l-3 -77q-11 -305 -401 -599q-178 -136 -523 -186q-147 26 -144 66v33q20 -1 22 15l32 -18l110 -4l2 44q1 38 -20 79q23 31 25 66q10 290 -15 632l2 85l-6 37h-18q-41 2 -106 14q5 0 5 -13l-54 15q-427 -24 -430 -69
q-33 18 -53 20l2 35q68 124 647 130l1 25l-7 608l24 38l-3 2q-16 1 -133 -64q-22 12 -42 12l2 66q72 102 257 96zM426 1758l-1 -62q1 -269 22 -472l-11 -57q-3 -63 50 -65q89 -3 395 -63l-2 -34q-27 -48 -101 -45q-85 3 -191 17q-130 -5 -140 -16q1 -217 23 -427l-7 -192
q-2 -53 4 -137q-10 -19 -10 -25q8 -63 5 -126v3l23 -1q239 59 477 330q137 154 144 459q-13 254 -256 589q-249 296 -424 324z" />
    <glyph glyph-name="eth" unicode="&#xf0;" horiz-adv-x="644" 
d="M-208.5 1363q-22.5 46 58 39.5t214 -53.5t267.5 -187.5t184.5 -348.5t32 -364t-79.5 -302q-153 -215 -304 -228q-192 -4 -203 214q-3 269 148 434.5t309 124.5q-15 177 -68 279t-155.5 196t-208 126t-139 28t-56 42zM224 54.5q94 37.5 191 251.5l15 131
q-42 137 -101.5 144t-118.5 -47t-93.5 -122.5t-51 -176.5t24 -163t134.5 -17.5zM32 794q-17 35 -17 51q1 67 360 113l94 9l274 18q133 -22 132 -66v-25h-25q-204 -5 -367 -19t-451 -81z" />
    <glyph glyph-name="uni01E4" unicode="&#x1e4;" horiz-adv-x="1225" 
d="M743 1898q330 0 386 -448q0 -101 -114 -205h-46q28 169 28 232v26q-29 131 -117 208t-241 38q-185 0 -415 -427q-92 -318 -92 -621v-122q48 -587 344 -587q235 111 428 562l13 166l-15 7q-261 -53 -304 -53q-39 0 -39 40v14q0 79 619 164l22 -49q-137 -60 -137 -143
q-27 -123 -27 -176v-42q0 -155 54 -297v-29q0 -29 -63 -67h-18q-34 4 -92 132v98h-18q-182 -373 -459 -462q-226 0 -359 309q-81 265 -81 507q0 894 634 1211q15 0 109 14zM606 415q-41 77 22.5 94.5t212 44.5t244.5 46.5t99 -19t-61.5 -61.5t-235.5 -61t-281 -44z" />
    <glyph glyph-name="Scaron" unicode="&#x160;" horiz-adv-x="806" 
d="M419 1861q120 -27 120 -121q0 -37 -37 -37h-17q-44 36 -79 36h-9q-277 -117 -259 -413q19 -170 276 -380q305 -247 305 -466q-16 -223 -216 -370q-150 -123 -445 -123h-25l-72 14v23q0 28 335 85q153 69 230 165.5t48.5 256.5t-345.5 419q-220 201 -220 394
q0 132 183 369q150 148 227 148zM388 2060q-65 96 -140.5 181t-42.5 110.5t125.5 -68.5t139.5 -134q87 66 159 150t111.5 61.5t-36 -104.5t-163.5 -187t-153 -9z" />
    <glyph glyph-name="scaron" unicode="&#x161;" horiz-adv-x="509" 
d="M367 814q23 -12 46 -12v-37q0 -10 -84 -124v-7q10 -62 128 -420v-39q-41 -204 -207 -204q-58 14 -133 106q30 88 63 88h31q47 -72 89 -72h12q10 0 22 21t2 78.5t-103 295.5h-3q-10 0 -260 -384q0 -13 -109 -95h-41v29q27 39 229 345l159 232q73 199 159 199zM221 897.5
q-52 76.5 -94 155t-14 100t84 -64.5t89 -115q65 50 137.5 132.5t106 63t-42.5 -100.5t-145 -164t-121 -6.5z" />
    <glyph glyph-name="Ucircumflex" unicode="&#xdb;" horiz-adv-x="1491" 
d="M385 1687q128 0 128 -820v-103q0 -51 13 -102q-13 -52 -13 -103v-397q0 -205 67 -244h5q124 126 325 952q61 215 104 773l46 31h30q40 0 51 -76q0 -107 -38 -309q0 -189 -13 -358q0 -820 217 -820q79 14 245 269q25 -48 25 -67q-147 -318 -323 -318q-280 101 -280 691
l-9 52q-11 -11 -144 -529q-120 -387 -242 -432h-40q-105 0 -154 384q12 450 12 616q0 769 -56 769q-251 -455 -251 -1030l-54 -56q-36 70 -36 112q0 482 258 1007q84 108 127 108zM854 2456q83 -1 96.5 -44.5t36.5 -76.5t68.5 -87t101.5 -123l-26 -66q-96 42 -147.5 101
t-84 113.5t-61 37.5t-268.5 -263q-57 -58 -136 -119h-40v24q0 128 460 503z" />
    <glyph glyph-name="ucircumflex" unicode="&#xfb;" horiz-adv-x="562" 
d="M375 -21q-92 65 -92 132h7q-96 -111 -122.5 -125.5t-63.5 -14.5q-121 40 -121 297v180q0 64 71 110q51 -16 63 -60q0 -38 -21 -167q1 -108 10 -175t17 -67q148 110 148 336q27 144 73 144h34l15 -60l-12 -192l12 -51q-12 -24 -12 -34q11 -143 35 -143h-11v24
q23 -23 21 -23q26 5 62 46q24 37 55 110q63 -3 38 -72q-64 -195 -162 -195h-44zM289.5 916q50.5 -61 111.5 -117t32 -74t-94 29t-114 95q-76 -57 -126.5 -101t-84.5 -29t27.5 69.5t129.5 121.5t118.5 6z" />
    <glyph glyph-name="Udieresis" unicode="&#xdc;" horiz-adv-x="1491" 
d="M385 1687q128 0 128 -820v-103q0 -51 13 -102q-13 -52 -13 -103v-397q0 -205 67 -244h5q124 126 325 952q61 215 104 773l46 31h30q40 0 51 -76q0 -107 -38 -309q0 -189 -13 -358q0 -820 217 -820q79 14 245 269q25 -48 25 -67q-147 -318 -323 -318q-280 101 -280 691
l-9 52q-11 -11 -144 -529q-120 -387 -242 -432h-40q-105 0 -154 384q12 450 12 616q0 769 -56 769q-251 -455 -251 -1030l-54 -56q-36 70 -36 112q0 482 258 1007q84 108 127 108zM1044 2083v-10q0 -58 -74 -95q-49 0 -92 114q20 51 67 78h43q56 -29 56 -87zM720 2046v-10
q0 -37 -96 -59h-14q-83 49 -83 115q0 55 97 69q96 -35 96 -115z" />
    <glyph glyph-name="udieresis" unicode="&#xfc;" horiz-adv-x="562" 
d="M373 -21q-93 65 -93 132h7q-96 -111 -122.5 -125.5t-63.5 -14.5q-121 40 -121 297v180q0 64 71 110q52 -16 63 -60q0 -38 -21 -167q1 -108 10 -175t18 -67q147 110 147 336q27 144 73 144h34l15 -60l-12 -192l13 -51q-13 -24 -13 -34q11 -143 35 -143h-11v24
q24 -23 21 -23q26 5 63 46q23 37 55 110q62 -3 37 -72q-64 -195 -162 -195h-43zM423 793v-8q0 -50 -64 -82q-42 0 -78 97q16 44 57 67h36q49 -25 49 -74zM153 754v-8q0 -33 -81 -52h-12q-71 42 -71 98q0 47 83 59q81 -29 81 -97z" />
    <glyph glyph-name="Ydieresis" unicode="&#x178;" horiz-adv-x="1110" 
d="M1304 1843h52l16 -62q0 -24 -921 -1619q-75 -151 -75 -184l-75 1l-14 77q99 252 423 809v1q-269 126 -551 470q-210 262 -254 415q14 27 14 50l65 -1q25 -3 234 -321q398 -478 531 -479h21q64 40 247 408q171 334 287 435zM1003 2209v-10q0 -58 -74 -95q-49 0 -92 114
q19 51 66 78h44q56 -29 56 -87zM610 2176v-10q0 -37 -96 -59h-14q-83 49 -83 115q0 55 97 69q96 -35 96 -115z" />
    <glyph glyph-name="ydieresis" unicode="&#xff;" horiz-adv-x="808" 
d="M357 511h15q58 -29 58 -85q-12 -180 -12 -251h7q329 253 417 291l32 -48q0 -34 -400 -313q-56 -80 -56 -99q-12 -306 -12 -347h20l-20 -40v-9q0 -35 13 -35q-47 -883 -272 -972q-68 -50 -174 -50q-179 0 -229 348v85q0 286 375 824q165 190 165 232v83h-10
q0 -83 -166 -168q-111 0 -136 288v61q0 73 70 109h38l48 -312h13q60 0 179 374q6 34 37 34zM-170 -1026q18 -323 179 -323q287 0 287 1017q-12 45 -12 110v60q0 11 -5 11q-414 -475 -449 -864v-11zM423 824v-8q0 -50 -64 -82q-42 0 -78 97q16 44 57 67h36q49 -25 49 -74z
M153 785v-8q0 -33 -81 -52h-12q-71 42 -71 98q0 47 83 59q81 -29 81 -97z" />
    <glyph glyph-name="Zcaron" unicode="&#x17d;" horiz-adv-x="1080" 
d="M1033 1809q66 -16 66 -96q-334 -454 -608 -977q-380 -563 -392 -691q202 0 762 105q185 -14 185 -66q0 -51 -787 -144q-145 -40 -253 -40h-26q-44 0 -53 65q0 46 988 1690v9v0q-389 -39 -489 -39q-354 30 -354 107q17 51 40 51q150 -27 210 -27h26q384 0 685 53z
M527 1963q-65 96 -140.5 181t-42.5 110.5t125.5 -68.5t139.5 -134q87 66 159 150t111.5 61.5t-36 -104.5t-163.5 -187t-153 -9z" />
    <glyph glyph-name="zcaron" unicode="&#x17e;" horiz-adv-x="547" 
d="M95 516q133 -34 288 -23l75 -15v-54l-317 -317q0 -11 8 -11q247 -4 417 14l8 -32q0 -51 -245 -91l-76 13q-71 0 -200 -13q-43 0 -78 76q27 53 171 180t140 136q-255 32 -255 99v25q19 0 64 13zM199.5 633q-48.5 72 -104.5 135t-29 84t95 -49t100 -97q60 46 114 108.5
t85.5 44t-25 -79.5t-122 -139.5t-114 -6.5z" />
    <glyph glyph-name="ntilde" unicode="&#xf1;" horiz-adv-x="666" 
d="M375 586h60q42 -70 77 -504h28q151 288 213 338v-53q-134 -395 -265 -395h-27q-82 42 -82 349v60q0 52 -25 59v0q-33 -117 -70 -389l-68 -69q-53 18 -53 87v156q0 59 -33 179h-16q-84 -264 -118 -264h-25v25q0 201 151 373h42q21 0 91 -108h7q19 75 113 156zM659 1125
q33 -5 33 -31q0 -197 -243 -310h-50q-123 78 -144 78q-11 0 -75 -102q-41 -20 -69 -20l-17 26v24q60 186 193 186q42 0 152 -70h37q108 43 147 164q0 55 36 55z" />
    <glyph glyph-name="Oslash" unicode="&#xd8;" horiz-adv-x="879" 
d="M492 1855q277 0 327 -429q13 -149 14 -347q-59 -1069 -412 -1092q-256 9 -372 514q-40 226 -26 466.5t128 564.5q176 308 341 323zM138 883q21 -632 286 -756h56q243 176 236 1094q0 43 -10 125q-43 413 -214 407h-36q-184 -59 -294 -574q-17 -116 -24 -296zM1021 1934
l19 -6q28 -16 18 -54q-532 -932 -859 -1548l-235 -440l-77 -4q43 159 308 669t511 955.5t315 427.5z" />
    <glyph glyph-name="oslash" unicode="&#xf8;" horiz-adv-x="397" 
d="M211 570q154 0 163 -250v-67q-30 -255 -214 -278q-165 24 -179 260v76q19 216 230 259zM119 171q18 -75 57 -84h6q93 66 80 286q-4 85 -49 93t-71.5 -43.5t-33.5 -114t11 -137.5zM215 238l-198 -391l-70 -5q37 137 261 568q82 157 124.5 237.5t81.5 56.5t-16 -128.5
t-183 -337.5z" />
    <glyph glyph-name="Odieresis" unicode="&#xd6;" horiz-adv-x="875" 
d="M489 1855q276 0 341 -518q-3 -41 -3.5 -56t3.5 -57q-61 -1237 -417 -1237q-272 0 -379 604q-9 74 -25 278q0 268 165 701q174 285 315 285zM136 958q0 -682 280 -831h55q244 201 244 1147v75q-66 404 -226 404h-38q-164 0 -302 -656q0 -27 -13 -139zM753 2104v-10
q0 -58 -74 -95q-49 0 -92 114q20 51 67 78h43q56 -29 56 -87zM429 2067v-10q0 -37 -96 -59h-14q-83 49 -83 115q0 55 97 69q96 -35 96 -115z" />
    <glyph glyph-name="glyph409" unicode="&#xf6;" horiz-adv-x="386" 
d="M195 570q147 0 147 -270v-44q0 -243 -195 -281q-157 24 -170 260v76q18 216 218 259zM101 321.5q-4 -50.5 3 -129.5t59 -105h4q78 63 76 287q0 73 -37 84h-22q-41 2 -60 -42t-23 -94.5zM409 760v-8q0 -50 -64 -82q-42 0 -78 97q16 44 57 67h36q49 -25 49 -74zM159 721v-8
q0 -33 -81 -52h-12q-71 42 -71 98q0 47 83 59q81 -29 81 -97z" />
    <glyph glyph-name="igrave" unicode="&#xec;" horiz-adv-x="322" 
d="M96 529q28 -25 26.5 -103t-6.5 -197q8 -120 54 -136l19 -1q36 19 100 124q19 38 41.5 30t9.5 -44q-2 -25 -51.5 -103.5t-122.5 -111.5l-40 -8q-132 13 -115 385q24 168 85 165zM137 1133q28 2 329 -151q138 -36 142 -74l1 -33l-23 -2q-162 -2 -456 152l-28 35l-2 24
q-2 23 37 49zM126 811h39v-61q0 -25 -46 -49h-15q-37 0 -37 40q26 63 59 70z" />
    <glyph glyph-name="iacute" unicode="&#xed;" horiz-adv-x="322" 
d="M96 529q28 -25 26.5 -103t-6.5 -197q8 -120 54 -136l19 -1q36 19 100 124q19 38 41.5 30t9.5 -44q-2 -25 -51.5 -103.5t-122.5 -111.5l-40 -8q-132 13 -115 385q24 168 85 165zM474 1401q5 -28 28 -28q-26 -140 -318 -388h-55q102 116 305 396zM126 811h39v-61
q0 -25 -46 -49h-15q-37 0 -37 40q26 63 59 70z" />
    <glyph glyph-name="Icircumflex" unicode="&#xce;" horiz-adv-x="463" 
d="M262 1829l18 -36q-25 -125 -25 -140v-50q0 -132 -13 -388h21l-21 -41v-22q0 -24 15 -50q-15 -27 -15 -38q0 -24 13 -48l-13 -65q63 -869 63 -946l-35 -18q-91 0 -91 150q-54 507 -58.5 679.5t-4.5 315t25 667.5q55 30 121 30zM315 2316q65 -96 140.5 -181t42.5 -110.5
t-125.5 68.5t-139.5 134q-87 -66 -159 -150t-111.5 -61.5t36 104.5t163.5 187t153 9z" />
    <glyph glyph-name="icircumflex" unicode="&#xee;" horiz-adv-x="322" 
d="M106 529q28 -25 26.5 -103t-6.5 -197q8 -120 54 -136l19 -1q36 19 100 124q19 38 41.5 30t9.5 -44q-2 -25 -51 -103.5t-122 -111.5l-41 -8q-132 13 -115 385q24 168 85 165zM186.5 805q50.5 -61 111.5 -117t31.5 -74t-100.5 41.5t-106 83.5q-66 -40 -122 -93t-90 -38
t27.5 69.5t129.5 121.5t118.5 6z" />
    <glyph glyph-name="Idieresis" unicode="&#xcf;" horiz-adv-x="463" 
d="M254 1829l19 -36q-26 -125 -26 -140v-50q0 -132 -12 -388h20l-21 -41v-22q0 -24 15 -50q-15 -27 -15 -38q0 -24 14 -48l-14 -65q63 -869 63 -946l-35 -18q-91 0 -91 150q-54 507 -58.5 679.5t-4.5 315t25 667.5q56 30 121 30zM476 2173v-10q0 -58 -74 -95q-49 0 -92 114
q20 51 67 78h43q56 -29 56 -87zM152 2136v-10q0 -37 -96 -59h-14q-83 49 -83 115q0 55 97 69q96 -35 96 -115z" />
    <glyph glyph-name="idieresis" unicode="&#xef;" horiz-adv-x="322" 
d="M95 529q28 -25 26.5 -103t-6.5 -197q8 -120 54 -136l19 -1q37 19 101 124q19 38 41.5 30t9.5 -44q-2 -25 -51.5 -103.5t-122.5 -111.5l-40 -8q-133 13 -116 385q25 168 85 165zM330 809v-8q0 -49 -62 -80q-41 0 -76 94q15 44 55 66h36q47 -24 47 -72zM87 771v-8
q0 -32 -78 -51h-13q-69 41 -69 96q0 46 81 57q79 -28 79 -94z" />
    <glyph glyph-name="ograve" unicode="&#xf2;" horiz-adv-x="386" 
d="M195 570q147 0 147 -270v-44q0 -243 -195 -281q-157 24 -170 260v76q18 216 218 259zM101 321.5q-4 -50.5 3 -129.5t59 -105h4q78 63 76 287q0 73 -37 84h-22q-41 2 -60 -42t-23 -94.5zM85 1012q242 -87 490 -122v-65l-66 -13h-13q-430 34 -467 118v36q0 25 56 46z" />
    <glyph glyph-name="oacute" unicode="&#xf3;" horiz-adv-x="386" 
d="M195 570q147 0 147 -270v-44q0 -243 -195 -281q-157 24 -170 260v76q18 216 218 259zM101 321.5q-4 -50.5 3 -129.5t59 -105h4q78 63 76 287q0 73 -37 84h-22q-41 2 -60 -42t-23 -94.5zM399 1154q31 -8 53 -1q31 -124 -294 -437l-63 -16l-13 48q54 14 317 406z" />
    <glyph glyph-name="otilde" unicode="&#xf5;" horiz-adv-x="386" 
d="M195 570q147 0 147 -270v-44q0 -243 -195 -281q-157 24 -170 260v76q18 216 218 259zM101 321.5q-4 -50.5 3 -129.5t59 -105h4q78 63 76 287q0 73 -37 84h-22q-41 2 -60 -42t-23 -94.5zM694 1097q33 -5 33 -31q0 -197 -243 -310h-50q-123 78 -144 78q-11 0 -75 -102
q-41 -20 -69 -20l-17 26v24q60 186 193 186q42 0 152 -70h37q108 43 147 164q0 55 36 55z" />
    <glyph glyph-name="" unicode="&#xf4;" horiz-adv-x="386" 
d="M194 570q149 0 149 -270v-44q0 -243 -195 -281q-158 24 -170 260v76q17 216 216 259zM100.5 321.5q-3.5 -50.5 3.5 -129.5t59 -105h4q79 63 77 287q0 73 -38 84h-23q-39 2 -59 -42t-23.5 -94.5zM189 955q72 -16 248 -196q-18 -50 -87 -48q-176 106 -177 106
q-118 -148 -176 -185h-16q-35 2 -33 39q91 175 241 284z" />
    <glyph glyph-name="uhuyen" unicode="&#xf9;" horiz-adv-x="562" 
d="M373 -21q-93 65 -93 132h7q-96 -111 -122.5 -125.5t-63.5 -14.5q-121 40 -121 297v180q0 64 71 110q52 -16 63 -60q0 -38 -21 -167q1 -108 10 -175t18 -67q147 110 147 336q27 144 73 144h34l15 -60l-12 -192l13 -51q-13 -24 -13 -34q11 -143 35 -143h-11v24
q24 -23 21 -23q26 5 63 46q23 37 55 110q62 -3 37 -72q-64 -195 -162 -195h-43zM276 1140q32 0 357 -205q151 -55 151 -96v-37h-26q-183 15 -500 220l-28 41v28q0 25 46 49z" />
    <glyph glyph-name="uacute" unicode="&#xfa;" horiz-adv-x="562" 
d="M373 -21q-93 65 -93 132h7q-96 -111 -122.5 -125.5t-63.5 -14.5q-121 40 -121 297v180q0 64 71 110q52 -16 63 -60q0 -38 -21 -167q1 -108 10 -175t18 -67q147 110 147 336q27 144 73 144h34l15 -60l-12 -192l13 -51q-13 -24 -13 -34q11 -143 35 -143h-11v24
q24 -23 21 -23q26 5 63 46q23 37 55 110q62 -3 37 -72q-64 -195 -162 -195h-43zM503 1221q5 -30 35 -30q-149 -308 -436 -451q145 162 358 460z" />
    <glyph glyph-name="ysac" unicode="&#xfd;" horiz-adv-x="670" 
d="M565 1173q-142 -294 -428 -437q135 153 322 453q78 63 106 -16zM-139 -1022q18 -269 179 -269q300 3 287 965q-12 98 -12 162v60q0 11 -5 11q-410 -474 -449 -852v-77zM305 67l9 80h-9q0 -85 -190 -192h-15q-121 0 -121 493v12q0 85 80 85l30 -45q8 -411 59 -411h6
q185 206 185 450l45 30h19q58 -29 58 -85q-12 -180 -12 -251h7q329 253 417 291l32 -48q0 -34 -400 -313q-37 -53 -57 -156q-11 -252 -4 -327q6 -80 -3 -175q-19 -688 -262 -844q-69 -50 -176 -50q-198 20 -228 348v85q0 286 375 824q126 136 155 199z" />
    <glyph glyph-name="degree" unicode="&#xb0;" horiz-adv-x="485" 
d="M363.5 2102.5q83.5 -35.5 117.5 -124.5l4 -92q-33 -190 -232 -208q-178 26 -195 192q0 79 36.5 140t111 94.5t158 -2zM181.5 1865q7.5 -69 38.5 -88.5t57.5 -15t63.5 48.5t27 124t-62 94t-92 -40t-32.5 -123z" />
    <glyph glyph-name="dieresis" unicode="&#xa8;" horiz-adv-x="1219" 
 />
    <glyph glyph-name="ordfeminine" unicode="&#xaa;" horiz-adv-x="417" 
d="M331 482q23 -17 38 -31q13 -13 28 -36q-45 -52 -116 -111q58 -33 105 -103q-10 -22 -24 -35q-21 -21 -48 -37q-65 59 -91 112q-44 -68 -91 -117q-31 16 -49 36q-10 9 -24 27q55 64 114 109q-54 40 -109 110q15 21 28 35q21 21 53 38q63 -62 87 -120q46 72 99 123z" />
    <glyph glyph-name="Ntilde" unicode="&#xd1;" horiz-adv-x="1053" 
d="M699 1601q529 15 531 -67v-28q-23 -2 -106 -21q-350 -10 -808 -54v0q207 -267 609 -539v-47q-687 -628 -684 -723q634 3 890 9l21 -43l2 -29q-163 -60 -512 -69l-515 -14q-94 -2 -111 59v19q11 156 730 803q-348 268 -597 468q-70 75 -71 145q-3 98 621 131z" />
    <glyph glyph-name="mu" unicode="&#xb5;" horiz-adv-x="993" 
 />
    <glyph glyph-name="AE" unicode="&#xc6;" horiz-adv-x="1739" 
d="M799 1728h15q52 0 4 -309h-82q-128 42 -549 -1047q-39 -165 -39 -194q0 -59 25 -148q-109 -236 -145 -236q-84 0 -80 76q146 883 666 1643q157 207 185 215zM895 1489v-526q2 -11 10 -11h11q430 66 705 86q23 -11 46 -11v-32q-71 -45 -645 -135q-139 -33 -139 -105
q35 -538 35 -700q7 -45 22 -45h11q437 69 715 69q157 -11 15 -72l-823 -138q-71 11 -71 47q0 56 11 73q-35 416 -35 753q-23 74 -23 109q23 37 23 65q0 164 12 344q0 6 -12 150q10 90 12 184h3q1 13 1 35l-12 23q0 168 753 222h82l69 -13v-56q-145 -37 -638 -95
q-137 -42 -137 -55v-166h-1zM872 463q-335 5 -597 -45l-33 49l19 15q149 82 444 101l138 13l19 -28q21 -30 10 -105z" />
    <glyph glyph-name="ae" unicode="&#xe6;" horiz-adv-x="781" 
d="M101.5 52q15.5 -5 58.5 29q63 53 87 137q-27 -1 -64.5 -17t-66 -45t-29.5 -64t14.5 -40zM406 366q140 42 152 114q3 44 -56 34q-62 -25 -82.5 -85.5t-13.5 -62.5zM251 332q-6 99 -36 142q-46 47 -119 0q-12 -113 -93 -109q-29 102 39 161t144.5 53.5t116.5 -59.5
q26 -34 28 -43q33 100 186 157q139 -2 126 -144q-15 -114 -131 -199l-83 -42q4 -55 54 -109t125 -38t144 141q29 -11 112 105q-143 -336 -304 -371q-55 2 -99.5 16.5t-88.5 67.5q-35 49 -42 73q-71 -120 -167 -165l-50 -16q-83 2 -108.5 45t-13.5 102.5t75.5 126.5
t184.5 105z" />
    <glyph glyph-name="OE" unicode="&#x152;" horiz-adv-x="1691" 
d="M487 1815q278 0 328 -429q13 -149 14 -347q-60 -1069 -412 -1092q-256 9 -373 514q-39 226 -25 466.5t128 564.5q176 308 340 323zM134 843q21 -632 286 -756h56q243 176 236 1094q0 43 -10 125q-44 413 -214 407h-36q-184 -59 -294 -574q-17 -116 -24 -296zM858 1514
v-503q2 -10 10 -10h11q431 63 705 82q23 -10 46 -10v-32q-70 -43 -645 -130q-139 -31 -139 -100q35 -515 35 -670q7 -43 22 -43h11q437 66 715 66q160 -9 16 -70l-824 -132q-71 11 -71 46q0 53 12 70q-36 398 -36 723v165q0 157 12 329q0 6 -12 144q10 86 12 177h-12
q-6 7 -6 31l-32 31q45 154 796 206h81l69 -13v-54q-145 -36 -637 -91q-138 -40 -138 -52v-160h-1z" />
    <glyph glyph-name="oe" unicode="&#x153;" horiz-adv-x="778" 
d="M102.5 143.5q24.5 -58.5 72.5 -60.5t87 80.5t6 248.5q-19 40 -61 46h-23q-41 3 -69.5 -51t-32.5 -129.5t20.5 -134zM404 366q140 42 152 114q3 44 -55 34q-63 -25 -83 -85.5t-14 -62.5zM338 108q-26 -100 -191 -133q-157 24 -170 260v76q16 202 197 254q131 -10 163 -75
q41 92 178 144q139 -2 126 -144q-15 -114 -131 -199l-82 -42q4 -55 54 -109t124.5 -38t143.5 141q29 -11 112 105q-143 -336 -304 -371q-54 2 -99 16.5t-88 67.5q-32 43 -33 47z" />
    <glyph glyph-name="germandbls" unicode="&#xdf;" horiz-adv-x="803" 
d="M599 339q12 95 35 134q0 349 -301 349q-172 -64 -172 -133q63 -888 93 -1048l12 -219q-168 76 -203 1034q-13 0 -13 161q-21 5 -50 72q50 122 50 158v24q0 80 -13 94q13 88 13 138v328q12 378 85 391h47l15 -61l-10 -61h1q28 70 224 195h28q190 0 208 -281
q0 -210 -365 -686v-17l134 22q316 -95 316 -403v-24q-5 -164 -91.5 -289t-112 -76.5t9.5 103t60 95.5zM173 1541v-73q0 -78 -12 -182l12 -48q-12 -109 -12 -184v-48l9 -61q254 205 345 585q10 0 10 35v61q0 129 -110 146h-18q-224 -172 -224 -231z" />
    <glyph glyph-name="logicalnot" unicode="&#xac;" horiz-adv-x="710" 
d="M659 333q1 -107 -6.5 -141t-29.5 -62q-53 -3 -55 80q-4 194 -4.5 222t-32.5 32t-210.5 -3.5t-227.5 -9.5t-28 71q65 12 260 24.5t239 7.5q9 -1 6 0q6 7 49 -8v0q41 -8 43 -53.5t-3 -159.5z" />
  </font>
</defs>
</svg>
